<svg xmlns="http://www.w3.org/2000/svg" viewBox="0 0 115.42 129.7"><g id="ORNAMENT_2" data-name="ORNAMENT 2"><circle cx="91.46" cy="120.23" r="4.85" style="fill:#d2e9ff"/></g><g id="ORNAMENT_1" data-name="ORNAMENT 1"><circle cx="83.78" cy="103.95" r="2.81" style="fill:#d2e9ff"/></g><g id="CLOD_1" data-name="CLOD 1"><path d="M254.4,295.71c-2.71,2,.44,5,.23,5.74s-6.87.22-10.45,1.74-1.93,5.57,3.67,6.08,20.84,1.57,24.5-1,1.29-4.94-.67-5.85-5.95-.84-5.56-2.09,5.39-1.15,3.85-3.91C268.91,294.53,258.48,292.74,254.4,295.71Z" transform="translate(-242.29 -208)" style="fill:#d2e9ff"/></g><g id="CLOD_2" data-name="CLOD 2"><path d="M357.49,263.77c1.9,5.68-9,4.65-8.37,6.35,1.17,3.17,6.55.42,6.65,5.91s-5.41,5.09-19.44,5.74c-6.45.3-13.16-1.65-12.75-6.15s10.81-2.88,9.5-5.27-2.05-4.11.1-6.71,7.33-2.72,13.66-2.34S356.94,262.14,357.49,263.77Z" transform="translate(-242.29 -208)" style="fill:#d2e9ff"/></g><g id="CLOD_3" data-name="CLOD 3"><path d="M336,214.67c-17.41.8-13.81-.2-18.34,2.13s1.81,6.19-.9,7.36-11.7,2.92-11.32,5.42c1.13,7.55,38.26,7.36,39.85.77,1-4.17-5.66-3.68-5-5.42s12.68-.58,14.26-5.62S344.41,214.28,336,214.67Z" transform="translate(-242.29 -208)" style="fill:#d2e9ff"/></g><g id="Z1"><path d="M315.85,325.34c-4,6.93-14.48,15.8-18.59,11-.13-.16-.25-.31-.36-.47-3-4.29-.8-12.59-.08-15,.09-.31.16-.53.19-.61-.27.55-3.17,6.48-4.81,8-2.23,2-6.42,2.48-7.77-.85a6.18,6.18,0,0,1-.42-2c-.21-4,2.59-7.83,7.89-12.95s13-9.43,15.47-2.46c2.45,6.77-2.73,17.12-3,17.72.3-.47,5.06-8.12,7.62-9.32a4.37,4.37,0,0,1,4.27.29C317.52,319.61,318,321.7,315.85,325.34Z" transform="translate(-242.29 -208)" style="fill:#1c3177"/><path d="M296.82,320.89c.13-.42.21-.66.21-.66s-3.11,6.46-4.83,8c-2.23,2-6.42,2.48-7.77-.85a5.56,5.56,0,0,0,4.89-1.35c3.27-2.82,9.83-12.49,9.83-12.49S298.12,317.14,296.82,320.89Z" transform="translate(-242.29 -208)" style="fill:#0c215b"/><path d="M315.85,325.34c-4,6.93-14.48,15.8-18.59,11-.13-.16-.25-.31-.36-.47a15,15,0,0,0,6.6-1.79c4.59-2.22,8.52-8.36,10.9-11.86a15.11,15.11,0,0,0,1.82-3.58C317.52,319.61,318,321.7,315.85,325.34Z" transform="translate(-242.29 -208)" style="fill:#0c215b"/></g><g id="Z2"><path d="M311,290.61c-4.27,3.94-14.08,6-19.18,5.56-4.11-.38-7.55-2.63-6.89-6.38a8.33,8.33,0,0,1,1.21-2.9c3.45-5.5,11.9-11.05,11.9-11.05l-.68.25c-2,.69-7.75,2.56-11.47,1.7a5.51,5.51,0,0,1-4.5-5.76,6.14,6.14,0,0,1,3.06-4.37c7.65-5,19.11-6.64,23.79-6s6.63,3.72,5.43,8.9c-1.15,5-10.58,12.43-11.18,12.9.47-.13,7.84-2.32,9.67-.81a4.5,4.5,0,0,1,1.62,2.26C314.14,286.36,313.57,288.2,311,290.61Z" transform="translate(-242.29 -208)" style="fill:#1c3177"/><path d="M302.82,271.38l-4.8,4.46-.68.25c-2,.69-7.75,2.56-11.47,1.7a5.51,5.51,0,0,1-4.5-5.76c.73.88,2.74,2.43,7.47,1.9A129.08,129.08,0,0,0,302.82,271.38Z" transform="translate(-242.29 -208)" style="fill:#0c215b"/><path d="M311,290.61c-4.27,3.94-14.08,6-19.18,5.56-4.11-.38-7.55-2.63-6.89-6.38,1.33,1.15,4.21,2.52,10.16,2a40.23,40.23,0,0,0,18.69-6.83C314.14,286.36,313.57,288.2,311,290.61Z" transform="translate(-242.29 -208)" style="fill:#0c215b"/></g><g id="Z3"><path d="M289.9,244.31c-6.61,6-18.4,13.75-22.77,14.86s-9.36.89-10.17-5.91a.5.5,0,0,1,0-.12c-.77-6.91,5-18.47,5-18.47l-.09.08h0c-.93.9-9.06,8.51-13.68,6.52a9,9,0,0,1-4-3.13c-2.67-4-.4-9.66,4.45-14.17,6.38-5.93,19.08-13.57,23.36-15.2s8.22-1.47,8.63,7.58c.36,8.23-5.66,20.21-6.77,22.33a17.29,17.29,0,0,1,4.92-5.05c3.67-2.54,10.82-7.25,15-3.81a5.47,5.47,0,0,1,2.05,3.82C296,236.58,294.26,240.35,289.9,244.31Z" transform="translate(-242.29 -208)" style="fill:#1c3177"/><path d="M265.53,227l-3.71,7.76h0c-.93.9-9.06,8.51-13.68,6.52a9,9,0,0,1-4-3.13,21.75,21.75,0,0,0,5.61-1C255.4,235.4,265.53,227,265.53,227Z" transform="translate(-242.29 -208)" style="fill:#0c215b"/><path d="M289.9,244.31c-6.61,6-18.4,13.75-22.77,14.86s-9.36.89-10.17-5.91c1.77,1.37,5,2.55,10.57.28,8.85-3.64,24.05-15.21,28.23-19.89C296,236.58,294.26,240.35,289.9,244.31Z" transform="translate(-242.29 -208)" style="fill:#0c215b"/></g></svg>