<svg width="750" height="900" xmlns="http://www.w3.org/2000/svg" xml:space="preserve" enable-background="new 0 0 750 900" version="1.1">
 <defs>
  <linearGradient y2="0" x2="0.5" y1="1" x1="0.5" id="SVGID_1_">
   <stop stop-color="#C7A0F6" offset="0"/>
   <stop stop-color="#8CE6FD" offset="1"/>
  </linearGradient>
  <linearGradient y2="0" x2="0.5" y1="1" x1="0.5" id="SVGID_4_">
   <stop stop-color="#6B49C0" offset="0"/>
   <stop stop-color="#5E7ED9" offset="1"/>
  </linearGradient>
  <linearGradient y2="0" x2="0.50006" y1="1" x1="0.50006" id="SVGID_42_">
   <stop stop-color="#8173CC" offset="0"/>
   <stop stop-color="#271068" offset="1"/>
  </linearGradient>
  <linearGradient y2="0.5" x2="1" y1="0.5" x1="0" id="SVGID_43_">
   <stop stop-color="#994574" offset="0"/>
   <stop stop-color="#43256F" offset="1"/>
  </linearGradient>
  <linearGradient y2="0.5" x2="0.99999" y1="0.5" x1="0" id="SVGID_44_">
   <stop stop-color="#8173CC" offset="0"/>
   <stop stop-color="#271068" offset="1"/>
  </linearGradient>
  <linearGradient y2="0.5" x2="1" y1="0.5" x1="0" id="SVGID_45_">
   <stop stop-color="#994574" offset="0"/>
   <stop stop-color="#43256F" offset="1"/>
  </linearGradient>
  <linearGradient y2="0.49998" x2="1" y1="0.49998" x1="-0.00001" id="SVGID_46_">
   <stop stop-color="#8173CC" offset="0"/>
   <stop stop-color="#271068" offset="1"/>
  </linearGradient>
  <linearGradient y2="0.49999" x2="1" y1="0.49999" x1="0" id="SVGID_47_">
   <stop stop-color="#271068" offset="0"/>
   <stop stop-color="#8173CC" offset="1"/>
  </linearGradient>
  <linearGradient y2="0.5" x2="1.00002" y1="0.5" x1="0.00002" id="SVGID_48_">
   <stop stop-color="#994574" offset="0"/>
   <stop stop-color="#43256F" offset="1"/>
  </linearGradient>
  <linearGradient y2="0.50002" x2="1.00002" y1="0.50002" x1="-0.00001" id="SVGID_49_">
   <stop stop-color="#994574" offset="0"/>
   <stop stop-color="#43256F" offset="1"/>
  </linearGradient>
  <linearGradient y2="-0.00001" x2="0.5" y1="0.99999" x1="0.5" id="SVGID_50_">
   <stop stop-color="#E8878E" offset="0"/>
   <stop stop-color="#E58589" offset="0.2186"/>
   <stop stop-color="#DE7F7B" offset="0.4692"/>
   <stop stop-color="#D27565" offset="0.7347"/>
   <stop stop-color="#C16846" offset="1"/>
  </linearGradient>
  <linearGradient y2="0.49999" x2="1.00001" y1="0.49999" x1="-0.00001" id="SVGID_51_">
   <stop stop-color="#E8878E" offset="0"/>
   <stop stop-color="#F4BEA3" offset="1"/>
  </linearGradient>
  <linearGradient y2="0.5" x2="1" y1="0.5" x1="-0.00001" id="SVGID_52_">
   <stop stop-color="#994574" offset="0"/>
   <stop stop-color="#43256F" offset="1"/>
  </linearGradient>
  <linearGradient y2="0.00002" x2="0.49999" y1="1.00002" x1="0.49999" id="SVGID_53_">
   <stop stop-color="#FDE1A7" offset="0"/>
   <stop stop-color="#FFFFFF" offset="1"/>
  </linearGradient>
  <linearGradient y2="-0.00009" x2="0.49997" y1="0.99996" x1="0.49997" id="SVGID_54_">
   <stop stop-color="#FDE1A7" offset="0"/>
   <stop stop-color="#FFFFFF" offset="1"/>
  </linearGradient>
  <linearGradient y2="0.00003" x2="0.49994" y1="1" x1="0.49994" id="SVGID_55_">
   <stop stop-color="#FDE1A7" offset="0"/>
   <stop stop-color="#FFFFFF" offset="1"/>
  </linearGradient>
  <linearGradient y2="-0.00001" x2="0.5001" y1="1.00004" x1="0.5001" id="SVGID_56_">
   <stop stop-color="#FDE1A7" offset="0"/>
   <stop stop-color="#FFFFFF" offset="1"/>
  </linearGradient>
  <linearGradient y2="0.49998" x2="1" y1="0.49998" x1="-0.00001" id="SVGID_57_">
   <stop stop-color="#5A55F8" offset="0"/>
   <stop stop-color="#8C6AE2" offset="1"/>
  </linearGradient>
  <linearGradient y2="0.5" x2="0.99999" y1="0.5" x1="0.00001" id="SVGID_58_">
   <stop stop-color="#FF57BD" offset="0"/>
   <stop stop-color="#FE6A77" offset="1"/>
  </linearGradient>
  <linearGradient y2="0.5" x2="1" y1="0.5" x1="-0.00004" id="SVGID_59_">
   <stop stop-color="#E8878E" offset="0"/>
   <stop stop-color="#F4BEA3" offset="1"/>
  </linearGradient>
  <linearGradient y2="0.50001" x2="1.00001" y1="0.50001" x1="0.00002" id="SVGID_60_">
   <stop stop-color="#E8878E" offset="0"/>
   <stop stop-color="#F4BEA3" offset="1"/>
  </linearGradient>
  <linearGradient y2="0.5" x2="1" y1="0.5" x1="0" id="SVGID_61_">
   <stop stop-color="#FE6A77" offset="0"/>
   <stop stop-color="#C91C91" offset="1"/>
  </linearGradient>
  <linearGradient y2="0.50001" x2="0.99999" y1="0.50001" x1="-0.00005" id="SVGID_62_">
   <stop stop-color="#F9A144" offset="0"/>
   <stop stop-color="#FDE1A7" offset="1"/>
  </linearGradient>
  <linearGradient y2="0.44367" x2="0.97322" y1="0.50585" x1="0.19648" id="SVGID_63_">
   <stop stop-color="#FDE1A7" offset="0"/>
   <stop stop-color="#F9A144" offset="1"/>
  </linearGradient>
  <linearGradient y2="0.5" x2="1" y1="0.5" x1="0" id="SVGID_64_">
   <stop stop-color="#00E2EC" offset="0"/>
   <stop stop-color="#20B5DF" offset="0.2998"/>
   <stop stop-color="#6A4EC2" offset="1"/>
  </linearGradient>
  <linearGradient y2="0.50002" x2="0.99992" y1="0.50002" x1="-0.00006" id="SVGID_65_">
   <stop stop-color="#5A18B2" offset="0"/>
   <stop stop-color="#7A50C9" offset="1"/>
  </linearGradient>
  <linearGradient y2="0.50001" x2="1" y1="0.50001" x1="0" id="SVGID_66_">
   <stop stop-color="#E8878E" offset="0"/>
   <stop stop-color="#E58589" offset="0.2186"/>
   <stop stop-color="#DE7F7B" offset="0.4692"/>
   <stop stop-color="#D27565" offset="0.7347"/>
   <stop stop-color="#C16846" offset="1"/>
  </linearGradient>
  <linearGradient y2="0.50002" x2="0.99993" y1="0.50002" x1="-0.00002" id="SVGID_67_">
   <stop stop-color="#F4BEA3" offset="0"/>
   <stop stop-color="#E8878E" offset="1"/>
  </linearGradient>
  <linearGradient y2="0.5" x2="1.00002" y1="0.5" x1="0" id="SVGID_68_">
   <stop stop-color="#FE6A77" offset="0"/>
   <stop stop-color="#C91C91" offset="1"/>
  </linearGradient>
  <linearGradient y2="0.50002" x2="1.00007" y1="0.50002" x1="0.00002" id="SVGID_69_">
   <stop stop-color="#994574" offset="0"/>
   <stop stop-color="#43256F" offset="1"/>
  </linearGradient>
  <linearGradient y2="0.5" x2="1" y1="0.5" x1="0" id="SVGID_70_">
   <stop stop-color="#05C5DA" offset="0"/>
   <stop stop-color="#0ABED8" offset="0.0356"/>
   <stop stop-color="#387CC7" offset="0.375"/>
   <stop stop-color="#594CBA" offset="0.6602"/>
   <stop stop-color="#6D2EB2" offset="0.877"/>
   <stop stop-color="#7523AF" offset="1"/>
  </linearGradient>
  <linearGradient y2="0.5" x2="1" y1="0.5" x1="-0.00001" id="SVGID_71_">
   <stop stop-color="#E8878E" offset="0"/>
   <stop stop-color="#E58589" offset="0.2186"/>
   <stop stop-color="#DE7F7B" offset="0.4692"/>
   <stop stop-color="#D27565" offset="0.7347"/>
   <stop stop-color="#C16846" offset="1"/>
  </linearGradient>
  <linearGradient y2="0.00003" x2="0.5" y1="1" x1="0.5" id="SVGID_72_">
   <stop stop-color="#170389" offset="0"/>
   <stop stop-color="#1C058C" offset="0.0772"/>
   <stop stop-color="#5A18B2" offset="1"/>
  </linearGradient>
  <linearGradient y2="1.01228" x2="0.52302" y1="0.00068" x1="0.45176" id="SVGID_73_">
   <stop stop-color="#E8878E" offset="0"/>
   <stop stop-color="#F4BEA3" offset="1"/>
  </linearGradient>
  <linearGradient y2="0.49997" x2="1.00002" y1="0.49997" x1="0.00001" id="SVGID_74_">
   <stop stop-color="#FE6A77" offset="0"/>
   <stop stop-color="#C91C91" offset="1"/>
  </linearGradient>
  <linearGradient y2="0.5" x2="1" y1="0.5" x1="0.00002" id="SVGID_75_">
   <stop stop-color="#43256F" offset="0"/>
   <stop stop-color="#994574" offset="1"/>
  </linearGradient>
  <linearGradient y2="0.04024" x2="0.69398" y1="1.16556" x1="0.23458" id="SVGID_76_">
   <stop stop-color="#FFFFFF" offset="0"/>
   <stop stop-color="#FDE1A7" offset="1"/>
  </linearGradient>
  <linearGradient y2="0.95787" x2="0.73807" y1="0.35306" x1="0.36772" id="SVGID_77_">
   <stop stop-color="#FDE1A7" offset="0"/>
   <stop stop-color="#FFFFFF" offset="1"/>
  </linearGradient>
  <linearGradient y2="0.49996" x2="0.99995" y1="0.49996" x1="0.00002" id="SVGID_78_">
   <stop stop-color="#FFFFFF" offset="0"/>
   <stop stop-color="#FDE1A7" offset="1"/>
  </linearGradient>
  <linearGradient y2="0.5" x2="1.00002" y1="0.5" x1="0.00002" id="SVGID_79_">
   <stop stop-color="#FFFFFF" offset="0"/>
   <stop stop-color="#FDE1A7" offset="1"/>
  </linearGradient>
  <linearGradient y2="0.49998" x2="0.99997" y1="0.49998" x1="-0.00007" id="SVGID_80_">
   <stop stop-color="#FFFFFF" offset="0"/>
   <stop stop-color="#FEEFD0" offset="0.4533"/>
   <stop stop-color="#FDE5B2" offset="0.8021"/>
   <stop stop-color="#FDE1A7" offset="1"/>
  </linearGradient>
  <linearGradient y2="0.50003" x2="1.00001" y1="0.50003" x1="0.00004" id="SVGID_81_">
   <stop stop-color="#FFFFFF" offset="0"/>
   <stop stop-color="#FDE1A7" offset="1"/>
  </linearGradient>
  <linearGradient y2="0.50003" x2="0.99996" y1="0.50003" x1="0.00002" id="SVGID_82_">
   <stop stop-color="#FFFFFF" offset="0"/>
   <stop stop-color="#FDE1A7" offset="1"/>
  </linearGradient>
  <linearGradient y2="0.50003" x2="1" y1="0.50003" x1="0.00001" id="SVGID_83_">
   <stop stop-color="#FFFFFF" offset="0"/>
   <stop stop-color="#FDE1A7" offset="1"/>
  </linearGradient>
  <linearGradient y2="0.49999" x2="0.99999" y1="0.49999" x1="-0.00001" id="SVGID_84_">
   <stop stop-color="#FFFFFF" offset="0"/>
   <stop stop-color="#FDE1A7" offset="1"/>
  </linearGradient>
 </defs>
 <g>
  <title>Layer 1</title>
  <g id="svg_179">
   <g display="none" id="Layer_1">
    <rect x="0" y="-1.66667" id="svg_1" height="900" width="750" fill="#FFFFFF" display="inline"/>
   </g>
   <g id="background">
    <path id="svg_2" d="m502,101.66633c13.856,12.458 28,37.333 20,75.333s-12.062,60.152 -3.667,79.667c16.417,38.167 167.548,103.669 166.667,207.667c-1,118 -121.5,123 -152.5,161c-22.835,27.992 -25,104 -96,149c-61.867,39.211 -184.902,45.516 -262.5,-21.5c-55,-47.5 -52.333,-105.5 -49.667,-129.833s25.61,-98.215 -11.535,-152.502c-44.132,-64.499 -39.007,-114.087 -23.78,-166.919c14.482,-50.246 53.853,-128.809 152.315,-183.913c109,-61 224.334,-50.666 260.667,-18z" fill="url(#SVGID_1_)"/>
    <path id="svg_16" d="m392.667,616.00033c27.98,1.042 107.583,8.333 102,46c-4.88,32.926 -49.083,41.803 -90.667,46.667c-44.396,5.193 -58.75,1.416 -87.333,22c-27.468,19.781 -52.167,33.666 -94,14.666c-31.254,-14.195 -30.118,-50.706 -24.417,-57.75c15.917,-19.667 38.591,-17.584 52.417,-23.583c11.333,-4.917 30.736,-28.18 56,-38s69.425,-10.617 86,-10z" fill="url(#SVGID_4_)" opacity="0.3"/>
   </g>
   <g id="armchair">
    <path id="svg_80" d="m317.875,567.20833c0.221,10.126 -0.208,79.124 -1.042,88.958c3.179,3.975 8.833,-0.333 8.833,-0.333s4.583,-18.75 6.667,-44.167c1.803,-21.989 2.333,-43.833 2.333,-43.833l-16.791,-0.625z" fill="url(#SVGID_42_)"/>
    <g id="svg_81">
     <path id="svg_82" d="m321.117,614.82533c-1.715,0 -3.077,-0.115 -3.655,-0.277c-0.531,-0.15 -0.841,-0.702 -0.691,-1.234c0.15,-0.531 0.704,-0.84 1.234,-0.691c1.5,0.425 10.604,0.376 13.765,-1.782c0.457,-0.309 1.079,-0.193 1.39,0.263c0.312,0.456 0.194,1.078 -0.262,1.39c-2.617,1.784 -8.039,2.331 -11.781,2.331z" fill="#7B7BEF"/>
    </g>
    <path id="svg_83" d="m232,416.33333c-9.53,1.292 -41.612,11.86 -45.469,33.861c-0.123,0.701 1.119,2.447 1.344,3.139c7.75,23.875 42.75,56 56.125,58.25c0.59,0.1 1.43,0.724 2.022,0.494c9.219,-3.569 18.819,-21.277 26.728,-26.994c3.438,-2.485 -40.75,-68.75 -40.75,-68.75z" fill="url(#SVGID_43_)"/>
    <path id="svg_84" d="m190.234,440.69433c-2.159,3.482 -3.606,7.354 -3.984,11.639c-1.75,19.834 44.15,62.735 58,60.25c1.563,-0.28 3.141,-1.025 4.724,-2.097c-28.63,-11.191 -54.618,-52.962 -58.74,-69.792z" fill="url(#SVGID_44_)"/>
    <path id="svg_85" d="m315.25,528.83333c9,-0.018 54.524,0.823 62.25,5.5c6.333,3.834 7.702,10.192 3.926,16.192s-21.676,17.183 -57.676,17.433s-59,-7.375 -59.25,-16.125s3.82,-21.837 26,-24c13.667,-1.333 19.75,1.01 24.75,1z" fill="url(#SVGID_45_)"/>
    <path id="svg_86" d="m324.5,571.58333c36,-0.25 53.149,-15.058 56.926,-21.058c1.656,-2.632 2.322,-5.333 2.014,-7.859c-9.698,6.762 -31.241,13.657 -59.939,14.834c-28.188,1.156 -51.727,-3.09 -59.001,-5.748c0,0.026 0,0.055 0.001,0.081c0.249,8.75 23.999,20 59.999,19.75z" fill="url(#SVGID_46_)"/>
    <path id="svg_87" d="m242.606,706.87633c2.727,-7.876 19.769,-36.543 54.894,-49.209c33.123,-11.944 59.277,-1.882 66.055,3.226s-4.375,14.233 -10.067,9.632c-6.113,-4.941 -22.113,-9.816 -40.605,-4.694c-24.299,6.73 -46.257,27.003 -46.401,42.247c-16.982,10.422 -23.876,-1.202 -23.876,-1.202z" fill="url(#SVGID_47_)"/>
    <path id="svg_88" d="m312.633,662.35933c-21.395,5.591 -50.187,21.15 -54.654,49.476c2.494,-0.627 5.321,-1.806 8.502,-3.758c0.144,-15.244 22.102,-35.517 46.401,-42.247c18.493,-5.122 34.493,-0.247 40.605,4.694c2.209,1.786 5.238,1.499 7.725,0.188c-10.657,-11.377 -27.826,-13.775 -48.579,-8.353z" fill="#665EDB"/>
    <circle id="svg_89" r="12.667" cy="711.66633" cx="254.333" fill="url(#SVGID_48_)"/>
    <circle id="svg_90" r="10.09" cy="670.98233" cx="363.555" fill="url(#SVGID_49_)"/>
    <g id="svg_91">
     <path id="svg_92" d="m254.333,715.58333c-2.16,0 -3.917,-1.757 -3.917,-3.917s1.757,-3.917 3.917,-3.917s3.917,1.757 3.917,3.917s-1.757,3.917 -3.917,3.917zm0,-6.334c-1.333,0 -2.417,1.084 -2.417,2.417s1.084,2.417 2.417,2.417s2.417,-1.084 2.417,-2.417s-1.084,-2.417 -2.417,-2.417z" fill="#7B7BEF"/>
    </g>
    <g id="svg_93">
     <path id="svg_94" d="m363.555,674.89933c-2.16,0 -3.917,-1.757 -3.917,-3.917s1.757,-3.917 3.917,-3.917s3.917,1.757 3.917,3.917s-1.757,3.917 -3.917,3.917zm0,-6.334c-1.333,0 -2.417,1.084 -2.417,2.417s1.084,2.417 2.417,2.417s2.417,-1.084 2.417,-2.417s-1.084,-2.417 -2.417,-2.417z" fill="#7B7BEF"/>
    </g>
   </g>
   <g id="head">
    <path id="svg_95" d="m263.609,332.04133c0.474,6.376 -1.276,32.959 -10.526,45.959c3.279,7.396 20.936,8.014 26.917,7.5c13.583,-1.167 23.167,-8.667 23.167,-8.667s-5.167,-27.333 -11,-36.5c-4.512,-1.435 -10.583,-2.083 -16.25,-3.917s-12.308,-4.375 -12.308,-4.375z" fill="url(#SVGID_50_)"/>
    <path id="svg_96" d="m300.167,300.66633c-7.175,-12.065 -17.798,-21.042 -19.5,-22.833c0,0 -30.875,-5.84 -39.333,17.667c-4.917,13.667 9.833,28.833 9.833,28.833s1.349,0.513 3.4,1.584c-1.501,1.269 -2.456,3.163 -2.456,5.282c0,3.82 3.097,6.917 6.917,6.917c2.923,0 5.417,-1.815 6.429,-4.377c0.117,0.114 0.236,0.22 0.352,0.336c5.024,5.009 24.237,15.142 35.548,4.761c9.81,-9.003 4.98,-27.793 -1.19,-38.17z" fill="url(#SVGID_51_)"/>
    <path id="svg_97" d="m297.667,249.58333c-3.752,-2.502 -11.75,2 -16,6.333s-10.084,7.583 -11.667,5.833s2.47,-3.586 0.583,-6c-2.083,-2.667 -13.583,0.667 -18.833,9.667s-9.416,21.083 -13.833,22.417s-3.167,-5.583 -7.75,-5.75s-10.417,5.75 -11.833,10.417c-2.105,6.936 -0.083,11.917 3.167,12.167c5.85,0.45 9.25,-8.583 13.333,-6.5c2.79,1.423 0.917,7.416 -0.583,12.583s0.417,12.083 6.417,16.833c4.488,3.553 8.781,4.296 11.481,4.333c-0.024,-0.236 -0.037,-0.476 -0.037,-0.718c0,-3.669 2.858,-6.662 6.469,-6.895c0.438,-1.753 0.542,-3.588 -0.08,-5.221c-2,-5.25 -16.05,-16.707 -13.417,-22.667c1.583,-3.583 5.833,-3.667 13.5,-3.917s12.384,0.404 13.167,-2.583c0.917,-3.5 -5.967,-2.217 -5.5,-4.083c0.75,-3 13.385,-0.614 24.167,-12c10.415,-10.999 10.999,-21.749 7.249,-24.249z" fill="url(#SVGID_52_)"/>
    <path id="svg_98" d="m283.25,324.00033c0,0 5.167,-0.417 8,-0.75s9.917,-0.833 9.917,-0.833s-2.5,7.833 -8.25,8.5s-9.667,-6.917 -9.667,-6.917z" fill="#FFFFFF"/>
    <g id="svg_99">
     <path id="svg_100" d="m269.238,312.18933c-0.175,0 -0.344,-0.092 -0.436,-0.255c-1.25,-2.22 -0.969,-4.833 0.698,-6.501c1.498,-1.498 3.817,-1.887 5.91,-0.989c0.254,0.109 0.372,0.403 0.263,0.656c-0.109,0.254 -0.405,0.372 -0.656,0.263c-1.715,-0.736 -3.603,-0.43 -4.81,0.777c-1.347,1.347 -1.561,3.479 -0.534,5.304c0.136,0.241 0.05,0.545 -0.19,0.681c-0.078,0.044 -0.162,0.064 -0.245,0.064z" fill="#212F66"/>
    </g>
    <g id="svg_101">
     <path id="svg_102" d="m288.691,297.20733c-0.224,0 -0.427,-0.151 -0.484,-0.378c-0.414,-1.641 -0.067,-3.167 0.951,-4.185c1.198,-1.198 3.124,-1.456 5.024,-0.672c0.255,0.105 0.377,0.397 0.272,0.653s-0.396,0.376 -0.653,0.272c-1.521,-0.627 -3.029,-0.452 -3.937,0.455c-0.763,0.763 -1.014,1.942 -0.688,3.234c0.067,0.268 -0.095,0.54 -0.363,0.607c-0.04,0.009 -0.081,0.014 -0.122,0.014z" fill="#212F66"/>
    </g>
    <path id="svg_103" d="m268.583,179.20233c0.208,0.794 0.29,1.306 0.373,1.856c0.083,0.536 0.131,1.051 0.18,1.562c0.083,1.021 0.125,2.022 0.126,3.023c-0.003,2 -0.09,3.986 -0.183,5.969c-0.194,3.965 -0.565,7.922 -0.817,11.871c-0.322,3.952 -0.475,7.893 -0.519,11.827c-0.015,0.984 -0.009,1.967 0.025,2.948c0.013,0.982 0.066,1.962 0.124,2.942c0.055,0.979 0.144,1.958 0.25,2.931c0.111,0.954 0.239,1.989 0.448,2.829c0.293,1.177 -0.424,2.369 -1.601,2.662s-2.37,-0.424 -2.663,-1.602c-0.051,-0.206 -0.071,-0.413 -0.063,-0.615l0.002,-0.035c0.048,-1.119 0.093,-2.047 0.102,-3.055c0.01,-0.989 0.009,-1.974 -0.024,-2.957c-0.03,-0.983 -0.063,-1.966 -0.135,-2.947c-0.051,-0.981 -0.129,-1.962 -0.228,-2.941c-0.38,-3.918 -0.865,-7.83 -1.535,-11.73l-1.938,-11.681c-0.299,-1.941 -0.603,-3.879 -0.856,-5.801c-0.125,-0.96 -0.216,-1.919 -0.29,-2.856c-0.03,-0.469 -0.066,-0.933 -0.081,-1.374c-0.02,-0.426 -0.036,-0.893 -0.009,-1.065l0.2,-1.292c0.394,-2.543 2.775,-4.286 5.319,-3.892c1.888,0.294 3.335,1.686 3.793,3.423z" fill="url(#SVGID_53_)"/>
    <path id="svg_104" d="m235.42,201.38933c0.155,0.733 0.576,2.021 0.987,3.228l1.35,3.786c0.926,2.568 1.928,5.151 2.752,7.831l1.32,3.996c0.472,1.319 0.979,2.625 1.545,3.896c0.556,1.277 1.144,2.538 1.794,3.747c0.325,0.603 0.644,1.209 0.996,1.773c0.35,0.552 0.722,1.131 1.066,1.504l0.014,0.015c0.659,0.714 0.615,1.829 -0.1,2.488c-0.715,0.66 -1.829,0.615 -2.488,-0.1c-0.009,-0.009 -0.023,-0.025 -0.031,-0.035c-0.596,-0.681 -1.023,-1.271 -1.457,-1.891c-0.427,-0.612 -0.847,-1.209 -1.246,-1.817l-2.365,-3.627c-0.771,-1.213 -1.565,-2.413 -2.365,-3.613c-0.814,-1.192 -1.629,-2.388 -2.409,-3.605c-1.602,-2.417 -2.927,-4.978 -4.153,-7.628c-0.61,-1.329 -1.177,-2.687 -1.684,-4.117c-0.254,-0.717 -0.491,-1.453 -0.699,-2.244c-0.109,-0.394 -0.201,-0.806 -0.289,-1.252c-0.045,-0.222 -0.083,-0.453 -0.118,-0.71l-0.057,-0.468l-0.017,-0.266c-0.132,-2.125 1.483,-3.957 3.609,-4.089c1.935,-0.121 3.625,1.208 4.013,3.05l0.032,0.148z" fill="url(#SVGID_54_)"/>
    <path id="svg_105" d="m296.263,190.92533l-0.799,4.436c-0.292,1.501 -0.599,3.006 -0.938,4.51c-0.692,3.006 -1.575,5.997 -2.787,8.946c-0.307,0.736 -0.646,1.466 -1.021,2.188c-0.182,0.361 -0.389,0.72 -0.588,1.074l-0.564,0.953c-0.745,1.273 -1.514,2.53 -2.211,3.81c-0.705,1.274 -1.369,2.562 -1.899,3.852c-0.528,1.267 -0.934,2.621 -0.875,3.607c0.071,1.198 -0.842,2.226 -2.039,2.298c-1.198,0.071 -2.227,-0.842 -2.298,-2.04c-0.008,-0.145 -0.003,-0.287 0.016,-0.425l0.015,-0.103c0.282,-1.973 0.956,-3.424 1.554,-4.873c0.626,-1.428 1.267,-2.792 1.893,-4.155l1.863,-4.059l0.464,-1.008c0.132,-0.306 0.267,-0.602 0.387,-0.915c0.247,-0.618 0.469,-1.255 0.666,-1.908c0.815,-2.604 1.228,-5.404 1.507,-8.221c0.291,-2.84 0.315,-5.648 0.315,-8.652c0,-2.044 1.658,-3.701 3.702,-3.701c2.044,0 3.701,1.658 3.701,3.702c0,0.217 -0.019,0.43 -0.055,0.636l-0.009,0.048z" fill="url(#SVGID_55_)"/>
    <path id="svg_106" d="m308.612,215.62433c-0.86,1.816 -2.036,3.019 -3.157,4.152c-1.135,1.125 -2.313,2.121 -3.446,3.126c-1.131,1.004 -2.263,1.979 -3.283,3.001c-0.506,0.511 -0.986,1.033 -1.396,1.563c-0.402,0.525 -0.724,1.088 -0.8,1.534l-0.019,0.111c-0.087,0.509 -0.57,0.851 -1.079,0.764c-0.44,-0.075 -0.756,-0.447 -0.777,-0.875c-0.054,-1.088 0.307,-1.95 0.659,-2.726c0.368,-0.776 0.805,-1.469 1.258,-2.133c0.909,-1.325 1.882,-2.542 2.854,-3.726c0.972,-1.182 1.92,-2.355 2.802,-3.5c0.867,-1.146 1.689,-2.291 2.095,-3.248c0.507,-1.199 1.891,-1.76 3.09,-1.252s1.76,1.892 1.252,3.09c-0.012,0.028 -0.024,0.055 -0.036,0.082l-0.017,0.037z" fill="url(#SVGID_56_)"/>
    <path id="svg_107" d="m299.448,287.95633c-2.284,-3.232 -5.799,-5.239 -9.174,-5.239c-1.619,0 -3.136,0.467 -4.388,1.352c-3.559,2.515 -4.234,7.835 -1.832,12.477c-2.141,0.377 -3.974,2.056 -5.119,3.539c-2.012,-2.182 -4.883,-3.559 -8.078,-3.559c-6.066,0 -11,4.935 -11,11c0,2.493 0.843,4.787 2.246,6.633c-2.316,2.435 -6.848,8.424 -8.764,12.682l0.241,0.108c0.812,-1.039 1.912,-1.837 3.182,-2.278c2.132,-3.548 5.105,-7.325 6.695,-9.031c1.957,1.786 4.55,2.886 7.402,2.886c6.066,0 11,-4.935 11,-11c0,-2.122 -0.614,-4.098 -1.658,-5.779c0.915,-1.306 2.959,-3.518 5.096,-3.248c2.285,3.02 5.651,4.892 8.899,4.892c1.619,0 3.136,-0.468 4.388,-1.353c3.975,-2.811 4.363,-9.128 0.864,-14.082zm-28.591,28.569c-4.963,0 -9,-4.038 -9,-9s4.038,-9 9,-9s9,4.038 9,9s-4.037,9 -9,9zm26.571,-16.122c-0.913,0.645 -2.031,0.986 -3.234,0.986c-2.736,0 -5.625,-1.684 -7.54,-4.394c-2.864,-4.053 -2.69,-9.12 0.386,-11.293c0.925,-0.654 2.013,-0.985 3.233,-0.985c2.736,0 5.625,1.684 7.54,4.394c2.865,4.052 2.691,9.118 -0.385,11.292z" fill="url(#SVGID_57_)"/>
    <g id="svg_108">
     <path id="svg_109" d="m234.306,299.96333c-0.023,0 -0.045,0 -0.068,-0.001c-1.104,-0.037 -1.969,-0.962 -1.932,-2.066c0.136,-4.068 1.326,-9.85 3.011,-12.097c0.664,-0.883 1.917,-1.062 2.8,-0.4c0.883,0.663 1.063,1.917 0.4,2.8c-0.894,1.191 -2.08,5.842 -2.213,9.83c-0.036,1.082 -0.925,1.934 -1.998,1.934z" fill="#FF57BC"/>
    </g>
    <path id="svg_110" d="m285.294,298.49233c4.444,1.681 14.637,8.18 15.206,11.591c0.417,2.5 -7.333,5.083 -7.917,4.25s-2.667,-5.333 -5.333,-9.167c-1.984,-2.853 -4.061,-4.875 -4.316,-6.074c0.406,-0.218 1.504,-0.78 2.36,-0.6z" fill="url(#SVGID_58_)"/>
   </g>
   <g id="body">
    <path id="svg_111" d="m203.865,273.51833c-3.725,-25.108 -1.436,-40.617 -1.115,-46.06c0.5,-8.5 5.875,-15.583 8.25,-21.875c1.955,-5.177 4.708,-8.5 2.875,-9.75c-2.711,-1.848 -7.625,4.583 -7.625,4.583s0.792,-16.75 -2.875,-16.583c-3.125,0.142 -1.125,9.875 -2.875,10.375s-4.708,-9.125 -7.375,-8.75c-1.444,0.203 -1.667,3.708 -1.667,3.708s-0.775,-0.651 -1.583,0.042c-1.167,1 -0.144,6.899 -1.125,9.25c-0.412,-0.582 -0.725,-1.005 -1.333,-0.875c-4.688,1 -3.874,25.296 -4.583,30.75c-1.137,8.735 -2.021,26.05 -0.939,46.867c4.44,0.499 12.698,0.787 21.97,-1.682z" fill="url(#SVGID_59_)"/>
    <path id="svg_112" d="m361.386,258.84833c-0.953,-9.167 -1.74,-16.057 -1.886,-18.349c-0.5,-7.833 -0.833,-14.333 -1.667,-21.667s-3.667,-15.333 -4.167,-18s0.431,-6.298 -0.854,-9.313c-1.083,-2.542 -2.396,-1.521 -2.396,-1.521s-0.088,-3.623 -1.667,-3.5c-1.875,0.146 -4.375,11.646 -5.667,11.833c-0.742,0.108 0.167,-13.125 -2.083,-13.375c-1.615,-0.18 -2.813,2.063 -4.375,9.313c-1.348,6.256 0.633,17.313 -0.375,17.313c-1.125,0 -1.75,-5 -2.875,-8.25s-2.438,-6.438 -4.125,-6.25c-1.678,0.187 -1.962,4.144 -1.212,9.769c0.596,4.467 7.712,26.981 10.712,37.231c1.169,3.995 1.919,10.348 2.297,17.557c4.156,0.59 11.652,0.732 20.34,-2.791z" fill="url(#SVGID_60_)"/>
    <path id="svg_113" d="m188.608,197.81333c0.428,0.593 0.727,1.306 0.867,2.049c0.07,0.372 0.108,0.752 0.11,1.135c-0.001,0.39 -0.021,0.751 -0.109,1.175c-0.057,0.271 -0.323,0.446 -0.595,0.389c-0.271,-0.057 -0.446,-0.323 -0.389,-0.595c0.006,-0.029 0.015,-0.058 0.026,-0.085l0.005,-0.012c0.108,-0.263 0.197,-0.612 0.252,-0.934c0.057,-0.33 0.083,-0.667 0.079,-1.006c-0.01,-0.678 -0.157,-1.357 -0.463,-1.992c-0.03,-0.063 -0.004,-0.137 0.058,-0.167c0.056,-0.027 0.125,-0.005 0.159,0.043z" fill="#C66C50"/>
    <path id="svg_114" d="m191.622,188.00033c-0.143,1.323 0.034,2.655 0.268,3.967c0.12,0.657 0.263,1.311 0.414,1.966c0.149,0.659 0.317,1.301 0.443,2.005c0.049,0.272 -0.132,0.532 -0.404,0.581c-0.272,0.049 -0.532,-0.132 -0.581,-0.404c-0.003,-0.015 -0.005,-0.029 -0.006,-0.043l-0.001,-0.009c-0.056,-0.633 -0.168,-1.312 -0.259,-1.98c-0.094,-0.671 -0.18,-1.348 -0.244,-2.027c-0.12,-1.354 -0.182,-2.744 0.085,-4.096c0.015,-0.078 0.089,-0.13 0.168,-0.116c0.074,0.012 0.124,0.082 0.117,0.156z" fill="#C66C50"/>
    <path id="svg_115" d="m201.333,191.46233c0.025,1.169 -0.041,2.337 -0.127,3.502c-0.045,0.583 -0.099,1.165 -0.162,1.747c-0.067,0.587 -0.128,1.155 -0.248,1.771c-0.053,0.271 -0.316,0.449 -0.587,0.396c-0.271,-0.053 -0.449,-0.316 -0.396,-0.587c0.003,-0.019 0.008,-0.037 0.014,-0.055l0.004,-0.012c0.161,-0.51 0.293,-1.088 0.42,-1.645c0.126,-0.563 0.243,-1.129 0.353,-1.696c0.215,-1.136 0.409,-2.278 0.514,-3.43c0.005,-0.06 0.058,-0.104 0.118,-0.098c0.054,0.006 0.096,0.052 0.097,0.107z" fill="#C66C50"/>
    <path id="svg_116" d="m207.737,198.61633c-0.884,0.922 -1.447,2.128 -2.059,3.269l-1.769,3.498c-0.604,1.163 -1.232,2.32 -1.966,3.432c-0.752,1.09 -1.543,2.219 -2.842,2.965c-0.239,0.138 -0.545,0.055 -0.683,-0.185s-0.055,-0.545 0.185,-0.683c0.008,-0.005 0.018,-0.01 0.026,-0.014l0.019,-0.009c1.023,-0.505 1.88,-1.522 2.638,-2.533c0.76,-1.032 1.438,-2.141 2.095,-3.263l1.942,-3.401c0.676,-1.116 1.293,-2.297 2.272,-3.224c0.042,-0.039 0.106,-0.037 0.145,0.004c0.038,0.04 0.037,0.102 0,0.141l-0.003,0.003z" fill="#C66C50"/>
    <path id="svg_117" d="m335.643,209.95333c0.265,0.827 0.814,1.515 1.427,2.145c0.618,0.627 1.305,1.194 2.011,1.746c0.705,0.554 1.432,1.087 2.142,1.674c0.354,0.296 0.706,0.602 1.036,0.962c0.316,0.366 0.671,0.768 0.78,1.426c0.045,0.273 -0.139,0.531 -0.412,0.576c-0.273,0.045 -0.531,-0.139 -0.576,-0.412c-0.002,-0.018 -0.004,-0.035 -0.006,-0.052l0,-0.008c-0.015,-0.249 -0.227,-0.607 -0.487,-0.92c-0.262,-0.32 -0.577,-0.626 -0.9,-0.925c-0.65,-0.598 -1.35,-1.171 -2.033,-1.769c-0.685,-0.596 -1.362,-1.215 -1.976,-1.907c-0.604,-0.687 -1.174,-1.483 -1.417,-2.401l-0.004,-0.014c-0.03,-0.116 0.039,-0.234 0.154,-0.265c0.112,-0.029 0.226,0.035 0.261,0.144z" fill="#C66C50"/>
    <path id="svg_118" d="m350.712,189.37833c0.09,0.823 0.081,1.631 0.084,2.441c-0.003,0.81 -0.021,1.618 -0.045,2.426c-0.055,1.62 -0.115,3.223 -0.254,4.86c-0.023,0.275 -0.266,0.479 -0.541,0.456s-0.48,-0.266 -0.457,-0.541c0.001,-0.01 0.002,-0.021 0.004,-0.03l0.001,-0.013c0.235,-1.565 0.402,-3.179 0.559,-4.775c0.075,-0.8 0.145,-1.602 0.2,-2.402c0.049,-0.799 0.108,-1.606 0.072,-2.391c-0.006,-0.104 0.074,-0.193 0.178,-0.2c0.1,-0.005 0.186,0.071 0.199,0.169z" fill="#C66C50"/>
    <path id="svg_119" d="m332,460.83333c-2.25,-18.75 -0.838,-44.293 6.75,-64c5.583,-14.5 22.083,-40.333 25.75,-64.25c2.465,-16.079 -0.81,-51.569 -3.114,-73.735c-8.688,3.522 -16.185,3.38 -20.339,2.792c0.592,11.288 0.271,24.679 -0.797,34.443c-1.75,16 -12.25,46.5 -25.5,63.5s-25.5,18.5 -35.75,18.5c-15.125,0 -43.375,-2.75 -61.75,-53.25c-7.312,-20.094 -11.293,-37.213 -13.385,-51.315c-9.272,2.469 -17.53,2.182 -21.972,1.682c0.899,17.311 3.157,37.042 7.772,56.3c5.828,24.316 16.5,49.333 26.5,68.167c9.024,16.995 13.728,46.255 23.333,70.667c6.115,15.54 14.345,38.547 29.387,53.979c1.535,-22.149 30.45,-44.314 63.115,-63.48z" fill="url(#SVGID_61_)"/>
    <g id="svg_120">
     <path id="svg_121" d="m187.521,306.78933c-0.962,0 -1.891,-0.054 -2.779,-0.165c-0.411,-0.051 -0.703,-0.425 -0.652,-0.836c0.051,-0.411 0.429,-0.704 0.836,-0.652c6.675,0.829 15.817,-1.707 23.862,-6.613c0.354,-0.216 0.815,-0.104 1.031,0.25c0.216,0.354 0.104,0.815 -0.25,1.031c-7.263,4.43 -15.436,6.985 -22.048,6.985z" fill="#FFA2BA"/>
    </g>
    <g id="svg_122">
     <path id="svg_123" d="m193.74,346.99733c-0.361,0 -0.679,-0.262 -0.739,-0.629c-0.066,-0.409 0.211,-0.794 0.62,-0.861c4.483,-0.729 20.759,-10.094 25.153,-15.651c0.257,-0.325 0.729,-0.379 1.054,-0.123c0.325,0.257 0.38,0.729 0.123,1.054c-4.66,5.892 -21.307,15.423 -26.089,16.201c-0.042,0.006 -0.082,0.009 -0.122,0.009z" fill="#FFA2BA"/>
    </g>
    <g id="svg_124">
     <path id="svg_125" d="m204.72,376.51433c-0.365,0 -0.685,-0.267 -0.741,-0.639c-0.061,-0.41 0.221,-0.792 0.631,-0.853c4.732,-0.707 24.331,-15.158 27.257,-20.889c0.188,-0.369 0.641,-0.516 1.009,-0.327c0.369,0.188 0.516,0.64 0.327,1.009c-3.139,6.149 -23.288,20.932 -28.371,21.691c-0.038,0.005 -0.075,0.008 -0.112,0.008z" fill="#FFA2BA"/>
    </g>
    <g id="svg_126">
     <path id="svg_127" d="m216.166,400.41633c-0.344,0 -0.654,-0.238 -0.731,-0.587c-0.09,-0.404 0.165,-0.805 0.569,-0.895c4.236,-0.941 30.154,-18.737 34.703,-27.681c0.188,-0.37 0.639,-0.517 1.008,-0.329c0.369,0.188 0.517,0.639 0.329,1.008c-4.729,9.297 -30.953,27.407 -35.714,28.465c-0.056,0.014 -0.11,0.019 -0.164,0.019z" fill="#FFA2BA"/>
    </g>
    <g id="svg_128">
     <path id="svg_129" d="m351.47,297.02133c-4.605,0 -9.016,-0.487 -11.333,-1.167c-0.397,-0.117 -0.625,-0.534 -0.508,-0.931c0.117,-0.398 0.535,-0.624 0.931,-0.508c4.732,1.391 18.342,1.853 23.589,-0.879c0.366,-0.191 0.821,-0.048 1.011,0.319c0.191,0.367 0.049,0.82 -0.319,1.011c-3.009,1.566 -8.308,2.155 -13.371,2.155z" fill="#FFA2BA"/>
    </g>
    <g id="svg_130">
     <path id="svg_131" d="m359.45,328.52133c-9.84,0 -22.656,-4.289 -25.949,-5.949c-0.37,-0.187 -0.519,-0.638 -0.333,-1.007c0.186,-0.37 0.64,-0.518 1.007,-0.333c3.65,1.84 19.294,7.003 28.957,5.537c0.407,-0.059 0.792,0.22 0.854,0.629c0.062,0.409 -0.22,0.792 -0.629,0.854c-1.222,0.186 -2.536,0.269 -3.907,0.269z" fill="#FFA2BA"/>
    </g>
    <g id="svg_132">
     <path id="svg_133" d="m356.292,360.16333c-0.004,0 -0.008,0 -0.012,0c-16.408,-0.26 -29.34,-11.985 -32.195,-16.227c-0.231,-0.344 -0.14,-0.81 0.203,-1.041c0.343,-0.231 0.811,-0.14 1.041,0.203c2.738,4.068 15.165,15.314 30.974,15.564c0.415,0.007 0.745,0.348 0.738,0.762c-0.005,0.41 -0.34,0.739 -0.749,0.739z" fill="#FFA2BA"/>
    </g>
    <g id="svg_134">
     <path id="svg_135" d="m340.647,393.08933c-0.024,0 -0.048,-0.001 -0.072,-0.003c-14.265,-1.367 -34.478,-17.5 -36.675,-22.823c-0.158,-0.383 0.024,-0.821 0.407,-0.979c0.384,-0.158 0.821,0.025 0.979,0.407c2.047,4.96 21.925,20.608 35.431,21.902c0.413,0.04 0.715,0.406 0.675,0.818c-0.036,0.388 -0.363,0.678 -0.745,0.678z" fill="#FFA2BA"/>
    </g>
    <g id="svg_136">
     <path id="svg_137" d="m258.125,405.11833c-20.54,0 -37.082,-1.072 -40.907,-2.208c-0.397,-0.118 -0.624,-0.536 -0.505,-0.933s0.538,-0.621 0.932,-0.506c8.697,2.581 83.802,4.811 120.906,-5.362c0.403,-0.113 0.812,0.126 0.921,0.525c0.11,0.399 -0.125,0.812 -0.525,0.921c-21.039,5.77 -54.269,7.563 -80.822,7.563z" fill="#FFA2BA"/>
    </g>
    <g id="svg_138">
     <path id="svg_139" d="m229.787,440.73633c-0.266,0 -0.524,-0.142 -0.66,-0.393c-0.198,-0.364 -0.063,-0.819 0.302,-1.017c14.077,-7.636 53.812,-21.713 103.438,-20.319c0.414,0.011 0.74,0.356 0.729,0.771s-0.349,0.77 -0.771,0.729c-49.309,-1.373 -88.727,12.569 -102.682,20.139c-0.113,0.061 -0.235,0.09 -0.356,0.09z" fill="#FFA2BA"/>
    </g>
    <g id="svg_140">
     <path id="svg_141" d="m237.898,466.84833c-0.228,0 -0.453,-0.104 -0.6,-0.299c-0.249,-0.331 -0.183,-0.802 0.148,-1.051c23.02,-17.32 54.523,-26.431 93.634,-27.079c0.434,0.003 0.756,0.324 0.762,0.738c0.007,0.414 -0.323,0.755 -0.738,0.762c-38.787,0.643 -69.995,9.652 -92.757,26.778c-0.134,0.102 -0.292,0.151 -0.449,0.151z" fill="#FFA2BA"/>
    </g>
    <g id="svg_142">
     <path id="svg_143" d="m247.966,491.93233c-0.174,0 -0.35,-0.061 -0.492,-0.184c-0.313,-0.272 -0.346,-0.746 -0.074,-1.059c2.816,-3.24 46.328,-32.489 83.941,-36.62c0.412,-0.062 0.782,0.252 0.828,0.663c0.045,0.412 -0.252,0.782 -0.664,0.827c-35.433,3.892 -79.493,32.11 -82.973,36.114c-0.147,0.172 -0.356,0.259 -0.566,0.259z" fill="#FFA2BA"/>
    </g>
    <path id="svg_144" d="m365.369,315.49833c-14.292,10.328 -6.706,27.825 -4.385,31.439c1.552,-4.792 2.789,-9.61 3.517,-14.354c0.68,-4.442 0.921,-10.37 0.868,-17.085z" fill="url(#SVGID_62_)"/>
    <path id="svg_145" d="m186.807,317.91633c0.836,4.529 1.777,9.07 2.859,13.584c1.175,4.905 2.556,9.836 4.08,14.742c12.081,-10.577 3.591,-27.397 -6.939,-28.326z" fill="url(#SVGID_63_)"/>
   </g>
   <g id="left_leg">
    <path id="svg_146" d="m389.418,494.82933c0,0 -68.418,31.17 -60.918,35.837s27.587,10.789 43.833,16.5c18.366,6.456 35.167,14.5 35.167,14.5s-11.875,11.542 -23.333,25.167c-0.918,1.092 -1.884,2.293 -2.881,3.573c3.921,5.629 13.8,15.316 28.291,18.697c17.426,-11.969 46.92,-33.28 48.673,-51.021c2.397,-24.26 -63.442,-60.87 -68.832,-63.253z" fill="url(#SVGID_64_)"/>
    <path id="svg_147" d="m449.393,538.45233c-4.239,5.82 -9.82,21.794 1.556,35.319c4.063,-5.32 6.804,-10.648 7.302,-15.688c0.594,-6.021 -3.016,-12.801 -8.858,-19.631z" fill="url(#SVGID_65_)"/>
    <path id="svg_148" d="m381.286,590.40633c-9.961,12.794 -23.078,33.67 -23.684,35.791c-0.667,2.333 0.565,9.469 2.731,14.803s14.167,21.708 16.333,19.666c2.922,-2.753 -0.5,-23.166 0.667,-27s10.417,-9.333 23.167,-18.333c2.229,-1.574 5.384,-3.692 9.077,-6.229c-14.491,-3.381 -24.37,-13.069 -28.291,-18.698z" fill="url(#SVGID_66_)"/>
    <g id="svg_149">
     <path id="svg_150" d="m415.27,605.89633c-0.042,0 -0.084,-0.003 -0.127,-0.011c-9.972,-1.701 -27.23,-15.192 -30.611,-19.748c-0.247,-0.333 -0.177,-0.803 0.155,-1.05c0.334,-0.246 0.803,-0.177 1.05,0.155c2.936,3.957 19.936,17.506 29.658,19.164c0.408,0.069 0.683,0.457 0.613,0.865c-0.063,0.367 -0.38,0.625 -0.738,0.625z" fill="#6022B6"/>
    </g>
    <g id="svg_151">
     <path id="svg_152" d="m396.315,596.17433c-0.209,0 -0.417,-0.087 -0.564,-0.257c-0.272,-0.312 -0.241,-0.785 0.071,-1.058c0.242,-0.212 24.261,-21.35 24.261,-34.692c0,-17.259 -61.287,-37.668 -76.457,-41.795c-0.4,-0.108 -0.636,-0.521 -0.527,-0.921c0.109,-0.399 0.522,-0.634 0.92,-0.526c0.776,0.211 77.563,22.053 77.563,43.242c0,14.021 -23.763,34.938 -24.774,35.821c-0.141,0.125 -0.317,0.186 -0.493,0.186z" fill="#6022B6"/>
    </g>
    <path id="svg_153" d="m361.025,620.07633c-1.964,3.216 -3.244,5.493 -3.423,6.121c-0.416,1.457 -0.092,4.785 0.737,8.379c5.175,-3.835 4.093,-10.734 2.686,-14.5z" fill="url(#SVGID_67_)"/>
   </g>
   <g id="left_slipper">
    <path id="svg_154" d="m360.75,643.83333c1.5,-0.75 16.464,-3.42 19.083,-0.583c1.065,1.153 0.5,18.916 -2.333,20.25c-2.473,1.164 -9.982,-7.205 -11.794,-9.776s-4.956,-9.891 -4.956,-9.891z" fill="url(#SVGID_68_)"/>
    <g id="svg_155">
     <path id="svg_156" d="m375.998,664.95833c-0.33,0 -0.665,-0.081 -0.974,-0.254c-18.3,-10.224 -22.469,-37.33 -22.506,-37.601c-0.149,-1.095 0.617,-2.103 1.711,-2.252c1.094,-0.153 2.103,0.617 2.251,1.711c0.035,0.251 4.158,25.523 20.494,34.649c0.964,0.539 1.31,1.757 0.771,2.722c-0.365,0.656 -1.046,1.025 -1.747,1.025z" fill="url(#SVGID_69_)"/>
    </g>
   </g>
   <g id="right_leg">
    <path id="svg_157" d="m489.839,474.78633c-18.756,-18.72 -45.097,-39.132 -73.589,-39.703c-37.416,-0.75 -74.917,21.75 -84.25,25.75c-32.665,19.166 -61.58,41.331 -63.114,63.479c9.814,10.069 22.526,16.915 39.447,16.354c55.334,-1.833 72.667,-50.333 111.833,-50.666c15.621,-0.133 31.14,5.734 44.859,12.774c5.388,-4.089 17.619,-18.02 24.814,-27.988z" fill="url(#SVGID_70_)"/>
    <g id="svg_158">
     <path id="svg_159" d="m307.122,523.35233c-19.759,0 -32.043,-12.489 -33.503,-14.054c-0.283,-0.303 -0.266,-0.777 0.037,-1.06c0.302,-0.284 0.776,-0.267 1.06,0.036c1.56,1.671 15.897,16.242 38.685,13.149c11.787,-1.598 23.404,-9.476 36.856,-18.597c18.453,-12.512 39.368,-26.693 66.545,-27.91c33.368,-1.498 54.772,14.324 54.984,14.484c0.331,0.249 0.396,0.719 0.147,1.05c-0.25,0.33 -0.721,0.397 -1.05,0.147c-0.209,-0.156 -21.205,-15.645 -54.016,-14.184c-26.754,1.198 -47.482,15.253 -65.77,27.654c-13.608,9.227 -25.361,17.195 -37.497,18.841c-2.239,0.306 -4.401,0.444 -6.478,0.444z" fill="#00E2EC"/>
    </g>
    <g id="svg_160">
     <path id="svg_161" d="m293.554,521.27833c-0.245,0 -0.485,-0.12 -0.629,-0.341c-0.226,-0.348 -0.127,-0.813 0.22,-1.038c1.991,-1.295 3.259,-4.563 3.667,-9.452c0.763,-9.137 -1.748,-21.056 -3.638,-22.794c-0.305,-0.28 -0.325,-0.755 -0.044,-1.06c0.281,-0.304 0.755,-0.324 1.06,-0.044c2.378,2.187 4.896,14.699 4.118,24.022c-0.455,5.444 -1.917,9.006 -4.344,10.585c-0.128,0.083 -0.27,0.122 -0.41,0.122z" fill="#00E2EC"/>
    </g>
    <path id="svg_162" d="m545.167,506.50033c-1.666,-2 -22.042,1.583 -27.417,-0.917c-2.046,-0.951 -12.378,-15.294 -27.911,-30.797c-7.195,9.968 -19.426,23.898 -24.813,27.988c20.074,10.301 36.297,23.111 43.354,23.315c12.745,0.369 38.453,-17.589 36.787,-19.589z" fill="url(#SVGID_71_)"/>
    <g id="svg_163">
     <path id="svg_164" d="m460.358,501.21533c-0.262,0 -0.516,-0.137 -0.654,-0.381c-0.203,-0.36 -0.076,-0.818 0.284,-1.022c3.368,-1.903 20.478,-18.729 24.517,-29.782c0.142,-0.39 0.574,-0.589 0.962,-0.446c0.389,0.142 0.589,0.572 0.446,0.962c-4.232,11.585 -21.611,28.552 -25.187,30.573c-0.116,0.065 -0.243,0.096 -0.368,0.096z" fill="#00E2EC"/>
    </g>
    <path id="svg_165" d="m420,449.66633c9.569,-0.113 16.41,-6.065 19.783,-9.823c-7.59,-2.848 -15.476,-4.599 -23.533,-4.76c-6.749,-0.135 -13.499,0.494 -20.088,1.627c3.584,5.568 12.059,13.096 23.838,12.956z" fill="url(#SVGID_72_)"/>
    <path id="svg_166" d="m510.166,519.83333c-4.323,-0.19 -7.36,2.103 -8.574,4.044c2.763,1.349 5.053,2.163 6.787,2.213c2.558,0.074 5.641,-0.599 8.917,-1.724c-1.027,-1.883 -3.126,-4.356 -7.13,-4.533z" fill="url(#SVGID_73_)"/>
   </g>
   <g id="right_slipper">
    <path id="svg_167" d="m534.75,500.70833c-2.148,0.68 -6.1,12.697 0.45,21.849c1.86,-1.79 8.682,-8.637 10.701,-10.964s8.974,-11.885 9.468,-12.714s-11.931,-0.921 -20.619,1.829z" fill="url(#SVGID_74_)"/>
    <g id="svg_168">
     <path id="svg_169" d="m519.752,538.08333c-0.624,0 -1.239,-0.291 -1.63,-0.838c-0.642,-0.898 -0.434,-2.147 0.466,-2.79c1.918,-1.37 26.343,-21.563 34.177,-35.241c0.548,-0.957 1.771,-1.291 2.729,-0.741c0.958,0.549 1.29,1.771 0.741,2.729c-8.31,14.509 -33.259,35.034 -35.323,36.509c-0.351,0.251 -0.758,0.372 -1.16,0.372z" fill="url(#SVGID_75_)"/>
    </g>
   </g>
   <g id="movement">
    <path id="svg_170" d="m350.34,590.21033l0.083,-0.028c0.682,-0.261 1.028,-1.035 0.765,-1.724c-0.197,-0.515 -0.699,-0.859 -1.249,-0.859c-0.163,0 -0.323,0.029 -0.478,0.088c-3.089,1.181 -6.456,2.266 -10.915,3.518c-3.33,0.907 -6.886,1.73 -11.197,2.594c-7.027,1.411 -14.481,2.415 -22.788,3.067c-5.864,0.43 -11.727,0.648 -17.431,0.648c-9.708,0 -19.246,-0.63 -28.348,-1.871c-8.215,-1.126 -15.446,-2.664 -22.106,-4.705c-3.947,-1.214 -7.296,-2.518 -10.239,-3.987c-1.695,-0.849 -3.223,-1.743 -4.542,-2.659c-0.351,-0.243 -0.695,-0.496 -1.022,-0.746l-0.458,-0.362l-0.511,-0.422c-0.691,-0.577 -1.351,-1.165 -1.964,-1.752c-2.681,-2.565 -4.642,-5.272 -5.828,-8.047c-1.251,-2.914 -1.686,-5.98 -1.29,-9.113c0.372,-2.957 1.556,-6.043 3.424,-8.923c0.903,-1.402 1.926,-2.688 3.039,-3.818c0.95,-0.97 2.348,-2.143 3.325,-2.571l0.099,-0.045c1.031,-0.482 1.811,-1.338 2.198,-2.407c0.387,-1.07 0.334,-2.227 -0.149,-3.256c-0.699,-1.489 -2.214,-2.452 -3.859,-2.452c-0.625,0 -1.232,0.136 -1.804,0.404c-2.662,1.248 -4.315,2.771 -5.912,4.353c-1.529,1.564 -2.88,3.27 -4.117,5.202c-2.514,3.973 -4.033,8.199 -4.511,12.558c-0.254,2.344 -0.188,4.659 0.198,6.88c0.393,2.24 1.095,4.434 2.087,6.518c1.749,3.685 4.428,7.152 7.962,10.307c0.774,0.689 1.589,1.366 2.422,2.01l0.63,0.473l0.693,0.493c0.441,0.302 0.887,0.592 1.346,0.877c1.679,1.038 3.505,1.984 5.58,2.892c3.413,1.484 7.063,2.694 11.485,3.81c6.783,1.679 14.192,2.777 23.315,3.456c4.942,0.365 10.091,0.542 15.739,0.542c2.438,0 4.922,-0.032 7.594,-0.1c7.244,-0.163 14.832,-0.687 23.198,-1.599c17.07,-1.889 31.966,-4.911 45.536,-9.244z" fill="url(#SVGID_76_)"/>
    <path id="svg_171" d="m396.367,683.29233c6.149,-2.021 11.539,-4.487 16.479,-7.543c6.027,-3.782 10.485,-8.086 13.622,-13.151c3.707,-5.974 5.35,-13.43 4.395,-19.945c-0.271,-1.748 -0.73,-3.48 -1.365,-5.142c-0.625,-1.693 -1.473,-3.355 -2.522,-4.951c-1.191,-1.759 -2.505,-3.207 -4.008,-4.416c-0.844,-0.679 -1.759,-1.277 -2.719,-1.778c-0.466,-0.242 -0.972,-0.47 -1.548,-0.694c-0.252,-0.096 -0.525,-0.192 -0.882,-0.303l-0.265,-0.081l-0.114,-0.029l-0.249,-0.062c-0.439,-0.108 -0.893,-0.163 -1.346,-0.163c-2.393,0 -4.54,1.501 -5.344,3.734c-1.055,2.933 0.473,6.177 3.405,7.231l0.258,0.094c0.129,0.045 0.294,0.104 0.449,0.248c0.081,0.046 0.159,0.094 0.239,0.148c0.271,0.162 0.524,0.365 0.791,0.58l0.012,0.009l0.044,0.036c0.645,0.551 1.263,1.233 1.788,1.973c1.086,1.455 2.047,3.463 2.767,5.786c0.794,2.456 1.178,4.756 1.138,6.824c-0.027,0.618 -0.061,1.2 -0.169,1.794c-0.047,0.272 -0.1,0.555 -0.161,0.834l-0.09,0.382l-0.007,0.028l-0.008,0.027l-0.147,0.497c-0.308,1.066 -0.78,2.281 -1.33,3.414c-2.017,4.192 -5.546,8.313 -10.206,11.913c-3.921,3.064 -8.684,5.763 -14.557,8.245c-9.783,4.031 -21.004,6.672 -33.36,7.853c-4.774,0.445 -9.643,0.672 -14.474,0.672c-6.701,0 -13.479,-0.434 -20.147,-1.287c-0.048,-0.007 -0.088,-0.009 -0.128,-0.009c-0.488,0 -0.9,0.366 -0.959,0.853c-0.032,0.257 0.039,0.511 0.198,0.715c0.16,0.204 0.389,0.333 0.646,0.365c8.886,1.085 17.516,1.636 25.648,1.636c3.169,0 6.335,-0.083 9.411,-0.247c6.361,-0.341 12.098,-0.957 17.538,-1.883c6.098,-1.009 11.909,-2.424 17.277,-4.207z" fill="url(#SVGID_77_)"/>
    <path id="svg_172" d="m447.629,650.61633c-0.253,0 -0.467,0.198 -0.487,0.451c-0.16,1.95 -0.514,3.844 -1.052,5.656c-0.492,1.647 -1.185,3.356 -2.119,5.224c-1.557,3.069 -3.772,6.102 -6.59,9.016c-2.637,2.697 -5.538,4.989 -8.627,6.815c-1.558,0.916 -3.172,1.685 -4.686,2.38c-0.847,0.378 -1.668,0.72 -2.29,0.975l-1.118,0.434l-0.466,0.186c-0.087,0.039 -0.216,0.091 -0.383,0.143l-0.333,0.112c-1.289,0.438 -2.165,1.692 -2.128,3.051c0.045,1.711 1.419,3.051 3.129,3.051l0.085,-0.002l0.373,-0.01c0.103,0 0.201,-0.005 0.323,-0.022l0.008,-0.001l0.057,-0.007c0.302,-0.036 0.588,-0.07 0.843,-0.115c0.616,-0.104 1.152,-0.22 1.645,-0.356c1.017,-0.271 2.057,-0.646 3.102,-1.121c1.737,-0.774 3.425,-1.81 5.477,-3.362c3.332,-2.531 6.297,-5.547 8.809,-8.962c2.511,-3.41 4.432,-7.116 5.712,-11.014c1.318,-4.076 1.736,-8.261 1.206,-12.096c-0.031,-0.227 -0.22,-0.403 -0.447,-0.422l-0.021,-0.497c-0.007,-0.001 -0.013,-0.004 -0.021,-0.005l0,0.498l-0.001,0z" fill="url(#SVGID_78_)"/>
    <path id="svg_173" d="m583.376,514.86333c-2.021,0 -3.679,1.645 -3.695,3.666c-0.019,2.302 -0.434,4.978 -1.27,8.181c-0.724,2.751 -1.675,5.5 -2.829,8.172c-2.361,5.463 -5.324,10.565 -8.805,15.169c-3.567,4.713 -7.675,9.052 -12.207,12.895c-4.91,4.191 -10.031,7.402 -15.219,9.54c-0.016,0.006 -0.041,0.019 -0.063,0.03c-0.143,0.08 -0.243,0.208 -0.287,0.362c-0.043,0.154 -0.023,0.316 0.055,0.456c0.106,0.19 0.308,0.308 0.525,0.308c0.104,0 0.201,-0.025 0.293,-0.077c5.663,-3.168 10.745,-6.065 15.6,-9.448c4.99,-3.485 9.61,-7.535 13.732,-12.037c4.371,-4.799 8.05,-9.819 10.93,-14.919c1.692,-3.016 3.042,-5.786 4.123,-8.467c1.421,-3.571 2.267,-6.465 2.74,-9.377l0.032,-0.191c0.025,-0.166 0.04,-0.35 0.042,-0.535c0.017,-2.038 -1.628,-3.71 -3.666,-3.727l-0.016,-0.498c-0.006,0 -0.011,-0.002 -0.017,-0.002l0,0.499l0.002,0z" fill="url(#SVGID_79_)"/>
    <path id="svg_174" d="m198.056,421.27333l0.055,-0.033c0.477,-0.308 0.615,-0.944 0.308,-1.419c-0.189,-0.294 -0.512,-0.47 -0.863,-0.47c-0.196,0 -0.388,0.057 -0.554,0.164c-2.5,1.611 -5.105,3.14 -7.625,4.619c-0.875,0.514 -1.752,1.028 -2.628,1.548c-4.044,2.362 -7.246,4.452 -10.084,6.583c-3.271,2.524 -6.437,5.105 -9.099,8.817c-1.52,2.169 -2.52,4.311 -3.049,6.539c-0.712,2.852 -0.381,5.931 -0.121,7.514l0.057,0.354c0.051,0.299 0.138,0.604 0.256,0.9c0.682,1.706 2.31,2.808 4.146,2.808c0.567,0 1.124,-0.107 1.656,-0.32c2.285,-0.914 3.401,-3.518 2.487,-5.804c-0.584,-1.459 -0.947,-2.661 -0.953,-4.14c-0.013,-1.351 0.369,-2.898 1.104,-4.471c1.283,-2.754 3.466,-5.713 6.489,-8.795c2.402,-2.466 5.226,-5.003 8.63,-7.753c3.403,-2.695 6.602,-4.865 9.788,-6.641z" fill="url(#SVGID_80_)"/>
    <path id="svg_175" d="m608.679,510.80233c-0.363,-0.438 -0.766,-0.643 -1.266,-0.643c-0.116,0 -0.239,0.012 -0.365,0.034c-2.032,0.356 -2.146,2.509 -1.915,6.997c0.092,1.792 0.188,3.646 -0.015,5.383c-0.343,2.947 -1.787,5.224 -2.842,6.885c-0.574,0.905 -1.287,2.028 -1.078,2.283c0.001,0 0.003,-0.001 0.007,-0.001c0.012,0 0.04,0.004 0.083,0.004c1.768,0 6.965,-4.587 8.104,-10.598c0.889,-4.686 0.609,-8.747 -0.713,-10.344z" fill="url(#SVGID_81_)"/>
    <path id="svg_176" d="m484.352,544.69433c-0.656,-0.91 -1.518,-1.353 -2.635,-1.353c-0.188,0 -0.385,0.014 -0.586,0.039c-3.113,0.396 -2.952,3.956 -2.434,9.73c0.22,2.441 0.447,4.965 0.263,7.284c-0.31,3.896 -2.114,6.984 -3.433,9.239c-1.11,1.899 -1.766,3.088 -1.26,3.558c0.084,0.078 0.165,0.109 0.29,0.109c1.862,0 6.532,-5.564 9.328,-13.951c2.152,-6.453 2.331,-12.069 0.467,-14.655z" fill="url(#SVGID_82_)"/>
    <path id="svg_177" d="m188.67,405.74033c0.002,-0.852 -0.234,-1.521 -0.703,-1.992c-0.625,-0.626 -1.701,-0.958 -3.113,-0.958c-3.302,0 -7.898,1.774 -12.295,4.747c-5.592,3.78 -9.437,7.239 -11.224,9.263c0.071,-0.042 0.142,-0.084 0.212,-0.126c2.391,-1.421 6.003,-3.569 10.446,-4.746c2.53,-0.67 5.123,-1.04 7.409,-1.365c5.912,-0.843 9.258,-1.482 9.268,-4.823z" fill="url(#SVGID_83_)"/>
    <path id="svg_178" d="m263.309,573.78733c-0.818,-1.063 -2.918,-1.794 -5.619,-1.956c-0.42,-0.025 -0.923,-0.037 -1.491,-0.052c-3.827,-0.095 -10.233,-0.253 -14.859,-4.32c-5.795,-5.095 -6.324,-10.515 -6.578,-13.119c-0.016,-0.161 -0.033,-0.336 -0.051,-0.5c-0.098,0.104 -0.202,0.253 -0.307,0.462c-1.29,2.575 -0.484,10.032 3.272,15.058c3.083,4.124 9.34,8.422 16.367,8.725c0.843,0.036 1.591,0.054 2.287,0.054c5.952,0 7.036,-1.396 7.311,-2.761c0.126,-0.627 0.021,-1.133 -0.332,-1.591z" fill="url(#SVGID_84_)"/>
   </g>
  </g>
 </g>
</svg>