<svg width="750" height="900" xmlns="http://www.w3.org/2000/svg" xml:space="preserve" enable-background="new 0 0 750 900" version="1.1">
 <defs>
  <linearGradient y2="0" x2="0.5" y1="1" x1="0.5" id="SVGID_1_">
   <stop stop-color="#C7A0F6" offset="0"/>
   <stop stop-color="#8CE6FD" offset="1"/>
  </linearGradient>
  <linearGradient y2="0" x2="0.5" y1="1" x1="0.5" id="SVGID_4_">
   <stop stop-color="#6B49C0" offset="0"/>
   <stop stop-color="#5E7ED9" offset="1"/>
  </linearGradient>
  <linearGradient gradientTransform="matrix(1,0,0,1,-229.56112670898438,37.55278778076172)" y2="285.2677" x2="501.237" y1="242.1411" x1="458.1104" gradientUnits="userSpaceOnUse" id="svg_359">
   <stop stop-color="#00FFFF" offset="0"/>
   <stop stop-color="#25ECED" offset="0.082"/>
   <stop stop-color="#58D1D4" offset="0.2106"/>
   <stop stop-color="#84BBBF" offset="0.3417"/>
   <stop stop-color="#A8A8AD" offset="0.4729"/>
   <stop stop-color="#C49A9F" offset="0.6041"/>
   <stop stop-color="#D88F96" offset="0.7354"/>
   <stop stop-color="#E48990" offset="0.8672"/>
   <stop stop-color="#E8878E" offset="1"/>
  </linearGradient>
  <linearGradient gradientTransform="matrix(1,0,0,1,-229.56112670898438,37.55278778076172)" y2="314.9092" x2="540.3066" y1="314.9092" x1="484.6934" gradientUnits="userSpaceOnUse" id="svg_358">
   <stop stop-color="#7D59D0" offset="0"/>
   <stop stop-color="#7C18A1" offset="1"/>
  </linearGradient>
  <linearGradient gradientTransform="matrix(1,0,0,1,-229.56112670898438,37.55278778076172)" y2="299.7998" x2="499.04" y1="299.7998" x1="484.9854" gradientUnits="userSpaceOnUse" id="svg_357">
   <stop stop-color="#3369FF" offset="0"/>
   <stop stop-color="#7C18A1" offset="1"/>
  </linearGradient>
  <linearGradient gradientTransform="matrix(1,0,0,1,-229.56112670898438,37.55278778076172)" y2="269.5688" x2="612.4619" y1="269.5688" x1="540.0762" gradientUnits="userSpaceOnUse" id="svg_355">
   <stop stop-color="#042637" offset="0"/>
   <stop stop-color="#2335E0" offset="1"/>
  </linearGradient>
  <linearGradient gradientTransform="matrix(1,0,0,1,-229.56112670898438,37.55278778076172)" y2="267.3066" x2="593.667" y1="267.3066" x1="555" gradientUnits="userSpaceOnUse" id="svg_354">
   <stop stop-color="#00C4C8" offset="0"/>
   <stop stop-color="#07C2C6" offset="0.0173"/>
   <stop stop-color="#42B3B8" offset="0.1706"/>
   <stop stop-color="#75A5AB" offset="0.3234"/>
   <stop stop-color="#9E9AA0" offset="0.4725"/>
   <stop stop-color="#BE9298" offset="0.617"/>
   <stop stop-color="#D58C93" offset="0.7558"/>
   <stop stop-color="#E3888F" offset="0.8863"/>
   <stop stop-color="#E8878E" offset="1"/>
  </linearGradient>
  <radialGradient gradientUnits="userSpaceOnUse" gradientTransform="matrix(0.3767000138759613,-0.9262997508049011,0.5921000242233276,0.24070000648498535,-4.4395294189453125,754.6248779296875)" r="53.768" cy="233.3643" cx="582.8125" id="svg_353">
   <stop stop-color="#E8878E" offset="0"/>
   <stop stop-color="#E48990" offset="0.1328"/>
   <stop stop-color="#D88F96" offset="0.2646"/>
   <stop stop-color="#C49A9F" offset="0.3959"/>
   <stop stop-color="#A8A8AD" offset="0.5271"/>
   <stop stop-color="#84BBBF" offset="0.6583"/>
   <stop stop-color="#58D1D4" offset="0.7894"/>
   <stop stop-color="#25ECED" offset="0.918"/>
   <stop stop-color="#00FFFF" offset="1"/>
  </radialGradient>
  <linearGradient gradientTransform="matrix(1,0,0,1,-229.56112670898438,37.55278778076172)" y2="198.8818" x2="601.9454" y1="223.231" x1="559.7715" gradientUnits="userSpaceOnUse" id="svg_352">
   <stop stop-color="#3369FF" offset="0"/>
   <stop stop-color="#305DDB" offset="0.1191"/>
   <stop stop-color="#2C4799" offset="0.3562"/>
   <stop stop-color="#283665" offset="0.5713"/>
   <stop stop-color="#25293F" offset="0.7571"/>
   <stop stop-color="#242228" offset="0.9062"/>
   <stop stop-color="#231F20" offset="1"/>
  </linearGradient>
  <linearGradient gradientTransform="matrix(1,0,0,1,-229.56112670898438,37.55278778076172)" y2="233.0581" x2="566.0176" y1="233.0581" x1="548.917" gradientUnits="userSpaceOnUse" id="svg_351">
   <stop stop-color="#FF57BD" offset="0"/>
   <stop stop-color="#DD8A91" offset="1"/>
  </linearGradient>
  <linearGradient gradientTransform="matrix(1,0,0,1,-229.56112670898438,37.55278778076172)" y2="228.5029" x2="606.6768" y1="228.5029" x1="590.834" gradientUnits="userSpaceOnUse" id="svg_350">
   <stop stop-color="#994574" offset="0"/>
   <stop stop-color="#43256F" offset="1"/>
  </linearGradient>
  <linearGradient gradientTransform="matrix(1,0,0,1,-229.56112670898438,37.55278778076172)" y2="397.2656" x2="572.332" y1="569.793" x1="572.332" gradientUnits="userSpaceOnUse" id="svg_348">
   <stop stop-color="#042637" offset="0"/>
   <stop stop-color="#2335E0" offset="1"/>
  </linearGradient>
  <linearGradient gradientTransform="matrix(1,0,0,1,-229.56112670898438,37.55278778076172)" y2="341.4243" x2="591.9766" y1="341.4243" x1="528.5605" gradientUnits="userSpaceOnUse" id="svg_347">
   <stop stop-color="#C91C91" offset="0"/>
   <stop stop-color="#FE6A77" offset="1"/>
  </linearGradient>
  <linearGradient gradientTransform="matrix(1,0,0,1,-229.56112670898438,37.55278778076172)" y2="399.6689" x2="591.7461" y1="399.6689" x1="527.1953" gradientUnits="userSpaceOnUse" id="svg_346">
   <stop stop-color="#FE6A77" offset="0"/>
   <stop stop-color="#FF57BD" offset="1"/>
  </linearGradient>
  <linearGradient gradientTransform="matrix(1,0,0,1,-229.56112670898438,37.55278778076172)" y2="284.4961" x2="580.4404" y1="284.4961" x1="550.3164" gradientUnits="userSpaceOnUse" id="svg_345">
   <stop stop-color="#FE6A77" offset="0"/>
   <stop stop-color="#FF57BD" offset="1"/>
  </linearGradient>
  <linearGradient gradientTransform="matrix(1,0,0,1,-229.56112670898438,37.55278778076172)" y2="616.8259" x2="567.1472" y1="581.2275" x1="531.5488" gradientUnits="userSpaceOnUse" id="svg_343">
   <stop stop-color="#05C5DA" offset="0"/>
   <stop stop-color="#5860C4" offset="1"/>
  </linearGradient>
  <linearGradient gradientTransform="matrix(1,0,0,1,-229.56112670898438,37.55278778076172)" y2="598.8096" x2="636.7627" y1="598.8096" x1="587.8496" gradientUnits="userSpaceOnUse" id="svg_342">
   <stop stop-color="#05C5DA" offset="0"/>
   <stop stop-color="#5860C4" offset="1"/>
  </linearGradient>
  <linearGradient gradientTransform="matrix(1,0,0,1,-229.56112670898438,37.55278778076172)" y2="619.666" x2="636.7627" y1="619.666" x1="593.7676" gradientUnits="userSpaceOnUse" id="svg_341">
   <stop stop-color="#A281FF" offset="0"/>
   <stop stop-color="#FF57BD" offset="1"/>
  </linearGradient>
  <linearGradient gradientTransform="matrix(1,0,0,1,-229.56112670898438,37.55278778076172)" y2="617.1211" x2="567.3359" y1="617.1211" x1="520.8145" gradientUnits="userSpaceOnUse" id="svg_340">
   <stop stop-color="#A281FF" offset="0"/>
   <stop stop-color="#FF57BD" offset="1"/>
  </linearGradient>
  <linearGradient gradientTransform="matrix(1,0,0,1,-229.56112670898438,37.55278778076172)" y2="582.4482" x2="612.0615" y1="582.4482" x1="597.9619" gradientUnits="userSpaceOnUse" id="svg_339">
   <stop stop-color="#8C6AE2" offset="0"/>
   <stop stop-color="#5A55F8" offset="1"/>
  </linearGradient>
  <linearGradient gradientTransform="matrix(1,0,0,1,-229.56112670898438,37.55278778076172)" y2="591.084" x2="612.1563" y1="591.084" x1="597.9375" gradientUnits="userSpaceOnUse" id="svg_338">
   <stop stop-color="#8C6AE2" offset="0"/>
   <stop stop-color="#5A55F8" offset="1"/>
  </linearGradient>
  <linearGradient gradientTransform="matrix(1,0,0,1,-229.56112670898438,37.55278778076172)" y2="599.9473" x2="612.6836" y1="599.9473" x1="597.9385" gradientUnits="userSpaceOnUse" id="svg_337">
   <stop stop-color="#8C6AE2" offset="0"/>
   <stop stop-color="#5A55F8" offset="1"/>
  </linearGradient>
  <linearGradient gradientTransform="matrix(1,0,0,1,-229.56112670898438,37.55278778076172)" y2="581.4648" x2="555.9326" y1="581.4648" x1="546.6006" gradientUnits="userSpaceOnUse" id="svg_336">
   <stop stop-color="#5A55F8" offset="0"/>
   <stop stop-color="#8C6AE2" offset="1"/>
  </linearGradient>
  <linearGradient gradientTransform="matrix(1,0,0,1,-229.56112670898438,37.55278778076172)" y2="592.6113" x2="555.9326" y1="592.6113" x1="547.3184" gradientUnits="userSpaceOnUse" id="svg_335">
   <stop stop-color="#5A55F8" offset="0"/>
   <stop stop-color="#8C6AE2" offset="1"/>
  </linearGradient>
  <linearGradient gradientTransform="matrix(1,0,0,1,-229.56112670898438,37.55278778076172)" y2="395.8438" x2="548.5" y1="395.8438" x1="498" gradientUnits="userSpaceOnUse" id="svg_333">
   <stop stop-color="#7C18A1" offset="0"/>
   <stop stop-color="#042637" offset="1"/>
  </linearGradient>
  <linearGradient gradientTransform="matrix(1,0,0,1,-229.56112670898438,37.55278778076172)" y2="353.7803" x2="537.3076" y1="353.7803" x1="527.5693" gradientUnits="userSpaceOnUse" id="svg_332">
   <stop stop-color="#7D59D0" offset="0"/>
   <stop stop-color="#7C18A1" offset="1"/>
  </linearGradient>
  <linearGradient gradientTransform="matrix(1,0,0,1,-229.56112670898438,37.55278778076172)" y2="322.2969" x2="541.043" y1="322.2969" x1="532.1006" gradientUnits="userSpaceOnUse" id="svg_331">
   <stop stop-color="#7D59D0" offset="0"/>
   <stop stop-color="#7C18A1" offset="1"/>
  </linearGradient>
  <linearGradient gradientTransform="matrix(1,0,0,1,-229.56112670898438,37.55278778076172)" y2="278.4399" x2="556.9014" y1="278.4399" x1="534.3691" gradientUnits="userSpaceOnUse" id="svg_330">
   <stop stop-color="#7D59D0" offset="0"/>
   <stop stop-color="#7C18A1" offset="1"/>
  </linearGradient>
  <linearGradient gradientTransform="matrix(1,0,0,1,-227.74294137954712,35.73460388183594)" y2="403.6465" x2="633" y1="403.6465" x1="576.7588" gradientUnits="userSpaceOnUse" id="svg_328">
   <stop stop-color="#7C18A1" offset="0"/>
   <stop stop-color="#042637" offset="1"/>
  </linearGradient>
  <linearGradient gradientTransform="matrix(1,0,0,1,-227.74294137954712,35.73460388183594)" y2="329.0479" x2="592.75" y1="329.0479" x1="569.7412" gradientUnits="userSpaceOnUse" id="svg_327">
   <stop stop-color="#7D59D0" offset="0"/>
   <stop stop-color="#7C18A1" offset="1"/>
  </linearGradient>
  <linearGradient gradientTransform="matrix(1,0,0,1,-227.74294137954712,35.73460388183594)" y2="360.8896" x2="589.5537" y1="360.8896" x1="569.7061" gradientUnits="userSpaceOnUse" id="svg_326">
   <stop stop-color="#7D59D0" offset="0"/>
   <stop stop-color="#7C18A1" offset="1"/>
  </linearGradient>
  <linearGradient gradientTransform="matrix(1,0,0,1,-227.74294137954712,35.73460388183594)" y2="421.6895" x2="631.6689" y1="421.6895" x1="597" gradientUnits="userSpaceOnUse" id="svg_325">
   <stop stop-color="#7C1DA5" offset="0"/>
   <stop stop-color="#3C2068" offset="1"/>
  </linearGradient>
  <linearGradient gradientTransform="matrix(1,0,0,1,-227.74294137954712,35.73460388183594)" y2="283.7529" x2="615.002" y1="283.7529" x1="571.6211" gradientUnits="userSpaceOnUse" id="svg_324">
   <stop stop-color="#7C18A1" offset="0"/>
   <stop stop-color="#042637" offset="1"/>
  </linearGradient>
  <linearGradient gradientTransform="matrix(1,0,0,1,-229.56112670898438,37.55278778076172)" y2="365.3047" x2="650.249" y1="365.3047" x1="607.3311" gradientUnits="userSpaceOnUse" id="svg_322">
   <stop stop-color="#7D59D0" offset="0"/>
   <stop stop-color="#7C18A1" offset="1"/>
  </linearGradient>
  <linearGradient gradientTransform="matrix(1,0,0,1,-229.56112670898438,37.55278778076172)" y2="409.6934" x2="649.8037" y1="409.6934" x1="641.1357" gradientUnits="userSpaceOnUse" id="svg_321">
   <stop stop-color="#3369FF" offset="0"/>
   <stop stop-color="#7C18A1" offset="1"/>
  </linearGradient>
  <linearGradient gradientTransform="matrix(1,0,0,1,-229.56112670898438,37.55278778076172)" y2="450.1719" x2="654.501" y1="450.1719" x1="629.9355" gradientUnits="userSpaceOnUse" id="svg_320">
   <stop stop-color="#C16846" offset="0"/>
   <stop stop-color="#D27565" offset="0.2653"/>
   <stop stop-color="#DE7F7B" offset="0.5308"/>
   <stop stop-color="#E58589" offset="0.7814"/>
   <stop stop-color="#E8878E" offset="1"/>
  </linearGradient>
 </defs>
 <g>
  <title>Layer 1</title>
  <g id="background">
   <path id="svg_2" d="m500.18181,90.75713c13.856,12.458 28,37.333 20,75.333s-12.062,60.152 -3.667,79.667c16.417,38.167 167.548,103.669 166.667,207.667c-1,118 -121.5,123 -152.5,161c-22.835,27.992 -25,104 -96,149c-61.867,39.211 -184.902,45.516 -262.5,-21.5c-55,-47.5 -52.333,-105.5 -49.667,-129.833s25.61,-98.215 -11.535,-152.502c-44.132,-64.499 -39.007,-114.087 -23.78,-166.919c14.482,-50.246 53.853,-128.809 152.315,-183.913c109,-61 224.334,-50.666 260.667,-18z" fill="url(#SVGID_1_)"/>
   <path id="svg_16" d="m390.84881,605.09113c27.98,1.042 107.583,8.333 102,46c-4.88,32.926 -49.083,41.803 -90.667,46.667c-44.396,5.193 -58.75,1.416 -87.333,22c-27.468,19.781 -52.167,33.666 -94,14.666c-31.254,-14.195 -30.118,-50.706 -24.417,-57.75c15.917,-19.667 38.591,-17.584 52.417,-23.583c11.333,-4.917 30.736,-28.18 56,-38s69.425,-10.617 86,-10z" fill="url(#SVGID_4_)" opacity="0.3"/>
  </g>
  <g>
   <g id="svg_415">
    <g display="none" id="svg_414">
     <rect x="-229.56113" y="37.55279" height="750" width="900" fill="#FFFFFF" display="inline"/>
    </g>
    <g id="svg_356">
     <path d="m269.10587,305.55279c-5.5,-11.667 -7.166,-12.833 -12,-17.5s-8.352,-8.274 -9.334,-7.833c-1.302,0.583 -0.999,4 0.084,6.917s2.916,4.417 2.916,4.417s-3.249,-0.333 -10.166,-3.417s-12.583,-7.917 -13.75,-6.75s1.166,5.167 1.166,5.167s-1.863,-1.188 -2.333,0.167c-0.227,0.654 0.84,2.913 1.75,4.333c0.829,1.294 3.083,3.583 3.083,3.583s-0.499,1 0.834,3.167s7.583,8.5 14.083,11.563c4.871,2.295 9.917,2.688 9.917,2.688s-0.41,5.484 -0.224,14.506c4.549,-0.619 12.072,-2.242 18.904,-6.1c-1.602,-6 -3.309,-11.47 -4.93,-14.908z" fill="url(#svg_359)"/>
     <path d="m228.22587,286.40379c0.403,0.509 0.931,0.964 1.443,1.413c0.52,0.446 1.056,0.876 1.6,1.296c1.089,0.836 2.209,1.645 3.36,2.356c0.236,0.143 0.312,0.451 0.169,0.687c-0.144,0.236 -0.451,0.312 -0.688,0.168c-0.008,-0.005 -0.021,-0.013 -0.028,-0.019c-1.158,-0.814 -2.236,-1.696 -3.291,-2.611c-0.526,-0.458 -1.043,-0.927 -1.546,-1.413c-0.499,-0.493 -1.003,-0.976 -1.428,-1.579c-0.081,-0.115 -0.054,-0.272 0.061,-0.353c0.11,-0.077 0.262,-0.055 0.344,0.049l0.004,0.006z" fill="#1AA9E8"/>
     <path d="m230.37387,294.42779c0.136,-0.11 0.381,-0.28 0.615,-0.338c0.233,-0.069 0.48,-0.092 0.712,-0.068c0.469,0.04 0.884,0.201 1.273,0.376c0.773,0.373 1.476,0.769 2.191,1.245c0.692,0.48 1.331,1.004 1.982,1.475c0.64,0.461 1.335,0.923 1.962,1.026l0.023,0.003c0.273,0.045 0.458,0.302 0.413,0.575c-0.044,0.272 -0.302,0.458 -0.574,0.413c-0.012,-0.002 -0.024,-0.004 -0.036,-0.007c-0.997,-0.239 -1.658,-0.804 -2.321,-1.313c-0.653,-0.524 -1.26,-1.074 -1.893,-1.561c-0.626,-0.465 -1.338,-0.913 -2.024,-1.286c-0.692,-0.361 -1.446,-0.602 -2.027,-0.124c-0.108,0.089 -0.27,0.074 -0.359,-0.035s-0.074,-0.27 0.035,-0.36c0,0 0,0 0.001,0l0.027,-0.021z" fill="#1AA9E8"/>
     <path d="m250.82687,291.37779c1.942,0.458 3.801,1.354 5.483,2.432l0.01,0.006c0.233,0.149 0.301,0.459 0.151,0.692s-0.459,0.301 -0.692,0.151c-0.015,-0.009 -0.029,-0.02 -0.043,-0.031c-1.519,-1.218 -3.168,-2.246 -5.019,-2.902c-0.096,-0.034 -0.146,-0.139 -0.111,-0.234c0.031,-0.089 0.124,-0.138 0.214,-0.118l0.007,0.004z" fill="#1AA9E8"/>
     <path d="m309.85887,323.77879c-1.253,-4.226 -6.17,-4.726 -6.17,-4.726c-2.417,3 -22.583,33.167 -22.583,33.167s-3.234,-17.406 -7.069,-31.761c-6.832,3.857 -14.355,5.481 -18.904,6.1c0.151,7.262 0.688,16.814 2.141,27.661c3.041,22.708 7.414,30.442 12.666,31.5c6,1.208 19.834,-5 31.334,-12.833s9.838,-44.883 8.585,-49.108z" fill="url(#svg_358)"/>
     <g>
      <path d="m273.68387,376.05879c-0.789,0 -1.438,-0.201 -1.915,-0.637c-8.067,-7.357 -10.131,-48.468 -10.215,-50.214c-0.014,-0.276 0.199,-0.51 0.475,-0.523c0.306,-0.017 0.51,0.2 0.523,0.476c0.021,0.423 2.126,42.442 9.891,49.523c3.897,3.563 25.651,-14.689 39.316,-27.824c0.197,-0.191 0.516,-0.187 0.707,0.014c0.191,0.199 0.186,0.516 -0.014,0.707c-3.258,3.131 -29.907,28.478 -38.768,28.478z" fill="#3369FF"/>
     </g>
     <g>
      <path d="m269.43387,337.12679l-0.682,-3.477c-0.251,-1.279 -1.492,-2.114 -2.772,-1.863c0,0 -5.922,1.839 -10.556,2.521c0.143,2.707 0.337,5.592 0.605,8.655c4.343,-0.234 11.54,-3.063 11.54,-3.063c1.281,-0.25 2.116,-1.492 1.865,-2.773z" fill="url(#svg_357)"/>
      <path d="m256.02987,343.46279c-0.258,0 -0.476,-0.197 -0.498,-0.457c-0.249,-2.842 -0.453,-5.76 -0.606,-8.672c-0.014,-0.258 0.171,-0.483 0.426,-0.521c4.542,-0.668 10.422,-2.485 10.48,-2.503c0.238,-0.049 0.423,-0.067 0.605,-0.067c1.363,0 2.543,0.972 2.806,2.312l0.682,3.477c0.147,0.751 -0.007,1.514 -0.434,2.148s-1.074,1.065 -1.825,1.212c-0.21,0.091 -7.235,2.835 -11.608,3.071c-0.011,0 -0.019,0 -0.028,0zm-0.082,-8.73c0.141,2.583 0.321,5.167 0.537,7.695c4.249,-0.394 10.834,-2.966 10.902,-2.993c0.575,-0.121 0.996,-0.401 1.274,-0.814c0.277,-0.413 0.378,-0.91 0.282,-1.398l-0.682,-3.477c-0.195,-0.989 -1.165,-1.674 -2.187,-1.469c-0.005,0.006 -5.58,1.73 -10.126,2.456z" fill="#3369FF"/>
     </g>
    </g>
    <g id="svg_349">
     <path d="m377.13187,301.35979c-3.443,-3.432 -9.193,-7.307 -20.068,-10.432s-42.375,-0.125 -46,8.5s11.418,21.193 24.146,24.159s43.896,-1.034 47.604,-13.534c0.911,-3.072 -5.682,-8.693 -5.682,-8.693z" fill="url(#svg_355)"/>
     <path d="m359.43887,285.38579c-1.625,5.417 2.834,27.667 4.667,34c-5.292,4.042 -12.732,5.775 -22.167,5.167c-11.625,-0.75 -16.5,-5.333 -16.5,-5.333s6.625,-7.792 8.166,-23.333c1.365,-13.77 25.834,-10.501 25.834,-10.501z" fill="url(#svg_354)"/>
     <path d="m363.99487,277.67279c5.104,-6.932 10.798,-18.471 1.778,-31.037c-5.084,-7.083 -15.339,-10.156 -20.959,-9.583c-13.735,1.4 -16.124,8.75 -16.124,8.75c-6.334,6.917 -16,38.75 -2.751,49c11.399,8.819 25.791,-1.69 31.019,-8.051c0.991,0.812 2.258,1.299 3.639,1.299c3.175,0 5.748,-2.574 5.748,-5.749c-0.001,-1.902 -0.927,-3.582 -2.35,-4.629z" fill="url(#svg_353)"/>
     <path d="m361.27287,252.46979c-3.702,0.081 -14.73,4.869 -16.646,1.521c-1.896,-3.313 5.508,-7.127 4.125,-9.5c-1.688,-2.896 -7.45,0.208 -12.188,2.375c-5.875,2.688 -10.029,2.546 -15.75,-3.438c-5.438,-5.688 -5.667,-12.625 -2.625,-14.875c3.56,-2.632 7.583,-1.833 9.938,-0.438c2.381,1.412 5.527,5.445 8.25,3.5c2.479,-1.771 -0.531,-6.475 3,-8.125c3.521,-1.646 9.604,0.792 12.729,4.979s3.202,5.689 8.146,6.396c6.563,0.938 19.475,4.585 20.188,21.604c0.583,13.917 -8.552,19.319 -11.875,21.41s0.507,-12.406 -0.375,-18.16c-0.438,-2.853 -3.083,-7.333 -6.917,-7.249z" fill="url(#svg_352)"/>
     <path d="m336.27287,263.05279c-0.98,-0.49 -6.501,2.667 -10.167,5.583c-3.29,2.618 -7.174,4.05 -6.712,5.817s6.879,3.767 6.879,3.767s1.267,-3.508 4.417,-7.25c3.332,-3.959 6.583,-7.417 5.583,-7.917z" fill="url(#svg_351)"/>
     <g>
      <path d="m328.46087,288.65279c-0.308,0 -0.642,-0.034 -1.002,-0.111c-3.365,-0.718 -4.722,-5.033 -4.475,-7.049c0.033,-0.274 0.284,-0.474 0.557,-0.436c0.274,0.033 0.47,0.283 0.436,0.557c-0.184,1.505 0.85,5.344 3.691,5.951c2.27,0.481 2.814,-1.136 2.836,-1.205c0.084,-0.263 0.36,-0.413 0.629,-0.324c0.263,0.084 0.408,0.365 0.324,0.628c-0.242,0.757 -1.157,1.989 -2.996,1.989z" fill="#9F36AD"/>
     </g>
     <path d="m342.49587,273.94979c-0.914,1.06 -2.515,1.177 -3.573,0.262l0,0c-1.061,-0.916 -1.178,-2.516 -0.263,-3.575l4.063,-4.704c0.914,-1.06 2.515,-1.177 3.573,-0.262l0,0c1.061,0.916 1.178,2.516 0.263,3.575l-4.063,4.704z" fill="#212F66"/>
     <path d="m340.93087,272.13879c-0.336,0.39 -0.925,0.433 -1.314,0.097l0,0c-0.389,-0.336 -0.432,-0.924 -0.096,-1.314l1.493,-1.729c0.337,-0.389 0.924,-0.433 1.313,-0.096l0,0c0.39,0.336 0.433,0.925 0.096,1.314l-1.492,1.728z" fill="#00E2EC"/>
     <path d="m328.37287,263.86579c-0.895,1.038 -2.462,1.152 -3.498,0.257l0,0c-1.038,-0.896 -1.153,-2.463 -0.257,-3.5l3.978,-4.605c0.895,-1.038 2.462,-1.153 3.498,-0.257l0,0c1.038,0.896 1.153,2.463 0.257,3.5l-3.978,4.605z" fill="#212F66"/>
     <path d="m326.84087,262.09379c-0.329,0.381 -0.905,0.423 -1.287,0.095l0,0c-0.381,-0.33 -0.423,-0.905 -0.094,-1.287l1.462,-1.693c0.33,-0.381 0.904,-0.423 1.286,-0.094l0,0c0.382,0.33 0.424,0.906 0.094,1.287l-1.461,1.692z" fill="#00E2EC"/>
     <path d="m377.10587,263.96979c-0.542,-13.104 -15.833,-11.5 -15.833,-11.5s2.541,1.771 3.417,7.5c1.045,6.835 -0.929,13.61 -2.58,16.792c1.577,0.43 2.882,1.512 3.609,2.942c3.281,-1.87 11.728,-7.499 11.387,-15.734z" fill="url(#svg_350)"/>
    </g>
    <g id="svg_344">
     <path d="m382.38387,606.47579c-0.077,-14.402 -0.112,-29.57 -0.112,-37.09c0,-16.5 1.667,-70.334 0.167,-85.5s-5,-44.666 -5,-44.666s-28.473,3.464 -46.016,2.114c-18.817,-1.447 -28.076,-6.516 -28.076,-6.516c-0.236,4.256 -1.949,46.625 0.203,71.507c2.832,32.734 9.061,78.213 12.039,98.853c4.039,1.469 12.684,2.865 21.172,0.748c0.633,-22.287 1.682,-52.35 2.011,-62.873c0.5,-16 2.834,-44 2.834,-44s5.999,40.499 9.333,60.333c2.037,12.117 5.005,31.319 7.35,47.13c5.338,0.948 14.917,1.269 24.095,-0.04z" fill="url(#svg_348)"/>
     <path d="m299.39587,431.69379c3.613,3.647 16.318,13.994 62.318,7.744c-1.583,-16 -6.441,-49.552 -5.108,-62.385s5.81,-54.438 5.81,-54.438s-15.143,3.604 -26.81,1.104s-16.834,-7.166 -16.834,-7.166s-9.583,21.5 -15.583,63s-3.793,52.141 -3.793,52.141z" fill="url(#svg_347)"/>
     <g>
      <path d="m330.18987,441.78679c-0.263,0 -0.482,-0.203 -0.499,-0.469c-1.007,-15.894 3.969,-103.505 5.418,-117.65c0.028,-0.275 0.272,-0.475 0.548,-0.447c0.274,0.028 0.475,0.274 0.446,0.548c-1.447,14.13 -6.419,101.625 -5.414,117.486c0.018,0.275 -0.191,0.513 -0.468,0.53c-0.011,0.002 -0.021,0.002 -0.031,0.002z" fill="#FFA2BA"/>
     </g>
     <g>
      <path d="m342.18687,503.46479c-0.243,0 -0.456,-0.178 -0.493,-0.426c-0.456,-3.045 -1.079,-7.59 -1.681,-11.985c-0.857,-6.262 -1.829,-13.36 -2.043,-13.951c-0.307,-0.797 -5.667,-5.664 -7.972,-7.537c-0.214,-0.174 -0.247,-0.488 -0.072,-0.703c0.174,-0.215 0.488,-0.248 0.703,-0.072c1.129,0.917 7.795,6.674 8.277,7.962c0.235,0.628 0.95,5.792 2.098,14.167c0.601,4.392 1.223,8.933 1.678,11.972c0.041,0.273 -0.147,0.527 -0.42,0.568c-0.025,0.003 -0.05,0.005 -0.075,0.005z" fill="#212F66"/>
     </g>
     <path d="m301.15787,429.93879c3.373,3.291 8.185,5.193 13.113,6.415c4.967,1.21 10.177,1.735 15.404,1.914c10.48,0.321 21.074,-0.72 31.568,-2.298l0.941,6.936c-10.819,1.279 -21.77,2.023 -32.804,1.341c-5.51,-0.363 -11.05,-1.084 -16.503,-2.593c-2.723,-0.761 -5.423,-1.725 -8.024,-3.03c-2.586,-1.297 -5.127,-2.988 -7.22,-5.175l3.525,-3.51z" fill="url(#svg_346)"/>
     <path d="m325.13587,316.32479c0.019,0.027 0.431,0.352 0.82,0.589c0.406,0.255 0.857,0.507 1.324,0.745c0.935,0.478 1.936,0.903 2.956,1.28c2.047,0.751 4.19,1.3 6.357,1.655c4.339,0.711 8.786,0.62 13.07,-0.238l1.215,6.894c-5.133,0.804 -10.4,0.684 -15.461,-0.368c-2.531,-0.526 -5.013,-1.273 -7.415,-2.272c-1.202,-0.503 -2.384,-1.063 -3.552,-1.723c-0.584,-0.331 -1.164,-0.686 -1.754,-1.092c-0.595,-0.435 -1.172,-0.805 -1.942,-1.68l4.382,-3.79z" fill="url(#svg_345)"/>
     <g>
      <path d="m337.98387,445.00479c-2.943,0 -5.848,-0.088 -8.634,-0.26c-6.425,-0.424 -11.7,-1.253 -16.605,-2.61c-3.048,-0.852 -5.702,-1.854 -8.115,-3.064c-2.943,-1.477 -5.419,-3.252 -7.356,-5.276c-0.188,-0.196 -0.185,-0.508 0.009,-0.7l3.523,-3.51c0.193,-0.192 0.505,-0.195 0.702,-0.003c2.86,2.79 7.074,4.848 12.884,6.287c4.423,1.077 9.429,1.699 15.301,1.899c1.276,0.039 2.558,0.059 3.839,0.059c8.192,0 16.975,-0.747 27.639,-2.351c0.132,-0.021 0.268,0.015 0.374,0.094c0.107,0.081 0.178,0.2 0.195,0.333l0.941,6.936c0.019,0.133 -0.018,0.268 -0.1,0.374c-0.082,0.105 -0.204,0.174 -0.337,0.189c-9.249,1.093 -16.958,1.603 -24.26,1.603zm-39.646,-11.553c1.806,1.798 4.07,3.385 6.74,4.724c2.354,1.183 4.95,2.162 7.935,2.996c4.836,1.338 10.048,2.156 16.401,2.575c2.763,0.171 5.646,0.258 8.569,0.258c7.128,0 14.652,-0.489 23.638,-1.537l-0.806,-5.929c-10.488,1.56 -19.171,2.287 -27.285,2.287c-1.292,0 -2.582,-0.02 -3.871,-0.059c-5.943,-0.203 -11.016,-0.834 -15.507,-1.929c-5.754,-1.426 -10.009,-3.457 -12.986,-6.203l-2.828,2.817z" fill="#FFA2BA"/>
     </g>
     <g>
      <path d="m344.14487,328.27379c-2.977,0 -5.947,-0.304 -8.828,-0.902c-2.622,-0.545 -5.147,-1.319 -7.506,-2.301c-1.321,-0.553 -2.5,-1.125 -3.605,-1.749c-0.647,-0.367 -1.233,-0.732 -1.791,-1.116l-0.229,-0.166c-0.537,-0.387 -1.093,-0.787 -1.805,-1.596c-0.089,-0.1 -0.133,-0.231 -0.124,-0.365c0.009,-0.133 0.071,-0.257 0.172,-0.344l4.381,-3.789c0.108,-0.093 0.252,-0.134 0.391,-0.118c0.141,0.018 0.268,0.095 0.348,0.212c0,0 0.001,-0.001 0.001,-0.001c0.021,0 0.354,0.255 0.668,0.447c0.39,0.245 0.822,0.488 1.291,0.727c0.867,0.443 1.844,0.865 2.902,1.256c1.974,0.725 4.081,1.273 6.266,1.631c4.231,0.694 8.654,0.614 12.892,-0.234c0.13,-0.026 0.268,0.001 0.38,0.078c0.111,0.076 0.187,0.193 0.21,0.326l1.215,6.894c0.023,0.132 -0.008,0.269 -0.085,0.377c-0.078,0.109 -0.197,0.183 -0.33,0.204c-2.248,0.35 -4.539,0.529 -6.814,0.529zm-22.671,-8.12c0.478,0.486 0.877,0.774 1.295,1.075l0.224,0.162c0.522,0.359 1.084,0.709 1.705,1.061c1.07,0.604 2.215,1.159 3.499,1.696c2.299,0.957 4.764,1.712 7.323,2.244c4.802,0.998 9.869,1.147 14.778,0.44l-1.038,-5.888c-4.197,0.78 -8.563,0.83 -12.747,0.144c-2.246,-0.368 -4.416,-0.933 -6.448,-1.68c-1.097,-0.404 -2.11,-0.843 -3.012,-1.304c-0.494,-0.252 -0.953,-0.51 -1.362,-0.767c-0.085,-0.051 -0.32,-0.205 -0.54,-0.364l-3.677,3.181z" fill="#FFA2BA"/>
     </g>
    </g>
    <g id="svg_334">
     <path d="m315.58887,605.17779c0.218,1.509 0.419,2.896 0.6,4.125c2.16,14.715 3.149,21.197 2.417,23.417c-4.604,13.958 -26.442,17.084 -27.167,19.5c-0.625,2.083 0.434,4.359 1.625,5.208c4.125,2.938 33.373,0.943 37.209,0.292c4.666,-0.792 7.416,-2.667 7.5,-4.167c0.065,-1.165 -1.333,-12.667 -1.5,-23c-0.057,-3.537 0.159,-13.029 0.488,-24.627c-8.488,2.117 -17.133,0.721 -21.172,-0.748z" fill="url(#svg_343)"/>
     <path d="m364.93887,651.05279c1.166,3.667 3.417,4.001 7.417,5.917s21.251,9.832 28.001,9.249s6.916,-2.499 6.833,-4.166s-4.166,-6.083 -10,-10.5s-13.918,-9.833 -14.334,-11.083c-0.227,-0.681 -0.379,-16.791 -0.472,-33.994c-9.179,1.31 -18.758,0.988 -24.096,0.04c1.493,10.068 2.733,18.766 3.317,23.37c1.501,11.834 2.168,17.5 3.334,21.167z" fill="url(#svg_342)"/>
     <path d="m372.35587,656.96979c4,1.916 21.251,9.832 28.001,9.249s6.916,-2.499 6.833,-4.166c-0.017,-0.344 -0.213,-0.81 -0.55,-1.362c-1.461,1.054 -4.351,2.365 -9.284,1.696c-11.227,-1.521 -31.094,-11.454 -33.149,-14.199c0.229,1.088 0.468,2.032 0.732,2.865c1.166,3.667 3.417,4.001 7.417,5.917z" fill="url(#svg_341)"/>
     <path d="m293.06387,657.42779c4.125,2.938 33.373,0.943 37.209,0.292c4.666,-0.792 7.416,-2.667 7.5,-4.167c0.019,-0.328 -0.08,-1.479 -0.233,-3.193c-2.652,1.209 -8.061,3.17 -17.101,4.318c-15.25,1.938 -27.313,-0.375 -29,-2.458c-0.625,2.083 0.434,4.359 1.625,5.208z" fill="url(#svg_340)"/>
     <g>
      <path d="m382.50087,623.13679c-0.018,-1.994 -0.035,-4.095 -0.051,-6.271l-7.319,0c-3.567,0 -6.481,2.768 -6.729,6.271l14.099,0z" fill="url(#svg_339)"/>
      <path d="m382.59487,631.55279c-0.024,-1.756 -0.048,-3.717 -0.069,-5.833l-14.149,0l0,5.833l14.218,0z" fill="url(#svg_338)"/>
      <path d="m382.63487,634.13579l-14.258,0c0.014,3.719 3.03,6.729 6.753,6.729l7.992,0c-0.131,-0.154 -0.232,-0.294 -0.267,-0.396c-0.082,-0.25 -0.156,-2.603 -0.22,-6.333z" fill="url(#svg_337)"/>
     </g>
     <g>
      <path d="m326.37187,622.92779l0,-2.285c0,-3.057 -2.478,-5.534 -5.533,-5.534l-3.799,0c0.445,3.052 0.813,5.63 1.099,7.819l8.233,0z" fill="url(#svg_336)"/>
      <path d="m318.46287,625.55279c0.439,3.815 0.513,6.045 0.143,7.167c-0.236,0.715 -0.527,1.396 -0.849,2.055l3.081,0c3.056,0 5.533,-2.478 5.533,-5.534l0,-3.688l-7.908,0z" fill="url(#svg_335)"/>
     </g>
    </g>
    <g id="svg_329">
     <path d="m318.93887,321.38579c-3.181,9.826 -8.239,35.018 -10.667,61.667c-2.597,28.506 -4.083,43.583 -4.333,81.333c-0.338,51.021 5.55,84.654 5,85.833c-0.875,1.875 -20,-3.666 -27.5,-7.666s-13,-9 -13,-9s10,-67 16.5,-106s16.5,-76 17.25,-86.25s1.5,-22.25 1.5,-22.25s3,-3.5 8.5,-2.75s6.75,5.083 6.75,5.083z" fill="url(#svg_333)"/>
     <path d="m298.19987,386.56279l-0.182,3.457c-0.067,1.656 0.13,3.076 2.713,4.867l5.919,4.303c0.363,-3.38 0.732,-6.879 1.097,-10.596l-6.428,-4.907c-1.921,-0.884 -3.052,1.22 -3.119,2.876z" fill="url(#svg_332)"/>
     <path d="m305.84387,353.10179c-2.405,-0.924 -3.052,1.221 -3.119,2.876l-0.182,3.457c-0.067,1.656 0.67,2.699 2.875,4.159l4.66,3.226c0.441,-3.382 0.912,-6.688 1.403,-9.884l-5.637,-3.834z" fill="url(#svg_331)"/>
     <path d="m311.06387,299.42779c-0.25,9.75 14.25,10.625 15.875,12.792c2.359,3.146 -6.333,20.666 -9,20.333s-7.305,-8.171 -9.375,-10.375c-1.938,-2.063 -3.875,-4.25 -3.75,-5.5s4.093,-14.459 6.25,-17.25z" fill="url(#svg_330)"/>
     <g>
      <path d="m315.59087,331.55179c-0.121,0 -0.242,-0.043 -0.339,-0.132c-0.203,-0.187 -0.216,-0.503 -0.029,-0.707c4.43,-4.817 9.46,-13.631 8.344,-15.71c-0.297,-0.552 -1.822,-1.335 -3.438,-2.165c-4.412,-2.266 -11.079,-5.689 -10.508,-12.309c0.024,-0.275 0.278,-0.478 0.541,-0.455c0.275,0.023 0.479,0.266 0.455,0.541c-0.513,5.95 5.795,9.189 9.969,11.333c1.984,1.019 3.418,1.755 3.861,2.581c1.604,2.989 -4.584,12.614 -8.488,16.86c-0.098,0.108 -0.233,0.163 -0.368,0.163z" fill="#3369FF"/>
     </g>
    </g>
    <g id="svg_323">
     <path d="m356.81387,333.17779c-1.25,4.875 -7.722,53.636 -9.042,103.709c-1.318,49.999 -0.199,118.023 1.667,120.666c2.001,2.834 20.584,-3.083 32.667,-7c11.459,-3.715 21.333,-9.667 21.333,-9.667s-1.333,-57.999 -1.333,-80.666s-7.917,-125.167 -7.917,-125.167s-7.11,-8.973 -19.25,-10.75s-18.125,8.875 -18.125,8.875z" fill="url(#svg_328)"/>
     <path d="m363.18887,357.38879l-20.124,7.875c-2.709,1.081 -2.942,2.503 -2.875,4.159l0.182,3.457c0.067,1.655 1.068,3.257 3.119,2.876l18.505,-7.96c0.38,-3.628 0.777,-7.103 1.193,-10.407z" fill="url(#svg_327)"/>
     <path d="m359.99287,390.54879l-16.963,5.238c-2.709,1.081 -2.942,2.503 -2.875,4.159l0.182,3.457c0.067,1.655 1.068,3.257 3.119,2.876l15.834,-5.492c0.221,-3.472 0.456,-6.889 0.703,-10.238z" fill="url(#svg_326)"/>
     <g>
      <path d="m342.38187,376.26179c-0.214,0 -0.411,-0.138 -0.478,-0.352c-0.115,-0.372 -0.182,-0.768 -0.199,-1.177l-0.181,-3.451c-0.069,-1.685 0.121,-3.426 3.188,-4.65l17.827,-6.976c0.259,-0.101 0.548,0.026 0.648,0.284s-0.026,0.547 -0.283,0.648l-17.824,6.975c-2.468,0.984 -2.618,2.194 -2.558,3.673l0.181,3.451c0.014,0.329 0.065,0.639 0.155,0.928c0.082,0.264 -0.065,0.544 -0.329,0.625c-0.048,0.015 -0.098,0.022 -0.147,0.022z" fill="#3369FF"/>
     </g>
     <g>
      <path d="m342.34687,406.78479c-0.214,0 -0.411,-0.138 -0.478,-0.352c-0.115,-0.372 -0.182,-0.768 -0.199,-1.177l-0.181,-3.451c-0.069,-1.685 0.121,-3.426 3.188,-4.65l15.164,-4.684c0.264,-0.081 0.543,0.066 0.625,0.33s-0.066,0.544 -0.33,0.625l-15.126,4.67c-2.433,0.972 -2.583,2.182 -2.522,3.661l0.181,3.451c0.014,0.329 0.065,0.639 0.155,0.928c0.082,0.264 -0.065,0.544 -0.329,0.625c-0.049,0.017 -0.099,0.024 -0.148,0.024z" fill="#3369FF"/>
     </g>
     <g>
      <path d="m359.94387,557.57879c-0.246,0 -0.46,-0.182 -0.494,-0.432c-6.613,-48.217 -2.636,-192.607 8.513,-227.995c0.082,-0.263 0.363,-0.41 0.627,-0.327c0.264,0.083 0.409,0.364 0.326,0.627c-11.121,35.301 -15.078,179.418 -8.476,227.558c0.038,0.274 -0.153,0.526 -0.427,0.563c-0.023,0.004 -0.046,0.006 -0.069,0.006z" fill="#3369FF"/>
     </g>
     <g>
      <path d="m389.24887,548.39979c-0.234,0 -0.443,-0.166 -0.49,-0.405c-6.654,-34.494 -1.473,-129.139 0.23,-160.239l0.284,-5.229c0.015,-0.275 0.259,-0.49 0.525,-0.473c0.276,0.015 0.487,0.25 0.473,0.526l-0.284,5.229c-1.701,31.071 -6.878,125.623 -0.246,159.996c0.052,0.271 -0.125,0.533 -0.396,0.586c-0.033,0.006 -0.064,0.009 -0.096,0.009z" fill="#9F36AD"/>
     </g>
     <path d="m401.51787,443.05779c-9.731,2.959 -24.739,7.661 -30.87,10.328c-1.917,0.834 -3.209,2.302 -3.209,3.959l0,15.541c0,1.657 1.219,2.542 2.876,2.542l31.793,-13.899c-0.001,-0.447 -0.002,-0.886 -0.002,-1.309c0,-3.78 -0.221,-9.788 -0.588,-17.162z" fill="url(#svg_325)"/>
     <g>
      <path d="m370.77687,475.73479c-0.17,0 -0.337,-0.088 -0.431,-0.245c-0.262,-0.442 -0.399,-0.959 -0.409,-1.536l-0.279,-15.538c-0.032,-1.81 1.25,-3.484 3.43,-4.479c4.904,-2.239 15.61,-5.917 23.729,-8.607c0.261,-0.088 0.546,0.056 0.632,0.317c0.087,0.262 -0.056,0.545 -0.317,0.632c-11.607,3.848 -19.777,6.811 -23.627,8.568c-1.807,0.824 -2.87,2.152 -2.846,3.552l0.279,15.538c0.007,0.402 0.098,0.753 0.271,1.044c0.141,0.237 0.062,0.544 -0.176,0.686c-0.081,0.045 -0.169,0.068 -0.256,0.068z" fill="#9F36AD"/>
     </g>
     <g>
      <path d="m377.52287,472.77679c-0.276,0 -0.5,-0.224 -0.5,-0.5l0,-11.057c0,-1.953 1.627,-3.442 3.24,-4.052l0.881,-0.339c2.016,-0.782 5.062,-1.964 7.21,-2.148c0.927,-0.078 1.729,0.163 2.319,0.705c0.602,0.552 0.933,1.39 0.933,2.36l0,8.592c0,0.276 -0.224,0.5 -0.5,0.5s-0.5,-0.224 -0.5,-0.5l0,-8.592c0,-0.696 -0.211,-1.258 -0.608,-1.623c-0.379,-0.349 -0.922,-0.499 -1.558,-0.446c-2.006,0.173 -4.972,1.323 -6.934,2.084l-0.89,0.343c-1.291,0.487 -2.594,1.641 -2.594,3.116l0,11.057c0.001,0.276 -0.223,0.5 -0.499,0.5z" fill="#3369FF"/>
     </g>
     <g>
      <path d="m344.43887,315.05279c2.062,-2.062 10.523,-1.186 19.667,-2.667c10.291,-1.667 14.833,-3.208 15.5,-5.5c0.837,-2.874 -3.167,-6.167 -3.167,-6.167s9.167,5.334 9,7.667s-5.833,17.667 -5.833,17.667s-10.833,5.167 -18.5,8.5s-15.166,8.333 -17.5,7.167s-2,-23.834 0.833,-26.667z" fill="url(#svg_324)"/>
      <path d="m345.66887,341.69179c-0.616,-2.872 -0.739,-5.75 -0.82,-8.625c-0.052,-2.875 0.009,-5.752 0.28,-8.623c0.142,-1.436 0.323,-2.87 0.638,-4.299c0.163,-0.714 0.349,-1.428 0.655,-2.136c0.16,-0.353 0.336,-0.709 0.651,-1.046c0.31,-0.318 0.693,-0.53 1.042,-0.683c1.436,-0.59 2.875,-0.757 4.308,-0.948c1.433,-0.17 2.862,-0.282 4.289,-0.39c2.854,-0.212 5.701,-0.394 8.523,-0.74c2.813,-0.351 5.619,-0.893 8.353,-1.638c1.363,-0.382 2.712,-0.822 4.001,-1.384c1.264,-0.567 2.568,-1.238 3.383,-2.264c0.821,-1.018 0.428,-2.506 -0.23,-3.689c-0.666,-1.215 -1.576,-2.33 -2.566,-3.339c-0.037,-0.035 -0.04,-0.093 -0.006,-0.13c0.032,-0.035 0.088,-0.037 0.125,-0.01c1.126,0.904 2.142,1.953 2.92,3.208c0.387,0.626 0.69,1.325 0.813,2.09c0.126,0.751 -0.011,1.644 -0.514,2.271c-0.98,1.235 -2.331,1.897 -3.64,2.509c-1.328,0.591 -2.701,1.05 -4.086,1.449c-2.776,0.779 -5.596,1.345 -8.451,1.724c-2.852,0.372 -5.711,0.575 -8.557,0.809c-1.422,0.118 -2.843,0.241 -4.247,0.418c-1.391,0.189 -2.826,0.391 -4.038,0.906c-0.63,0.265 -0.94,0.609 -1.202,1.256c-0.259,0.606 -0.435,1.284 -0.583,1.963c-0.29,1.366 -0.459,2.774 -0.587,4.184c-0.241,2.823 -0.324,5.67 -0.269,8.511c0.075,2.832 0.204,5.7 0.789,8.425l0.003,0.01c0.058,0.27 -0.114,0.536 -0.384,0.594c-0.269,0.059 -0.535,-0.113 -0.593,-0.383l0,0z" fill="#3369FF"/>
      <g>
       <path d="m367.68787,332.38979c-0.051,0 -0.103,-0.008 -0.154,-0.024c-0.263,-0.085 -0.406,-0.367 -0.321,-0.63c1.427,-4.397 5.532,-18.502 5.573,-18.644c0.076,-0.266 0.351,-0.42 0.62,-0.34c0.266,0.077 0.418,0.354 0.341,0.62c-0.042,0.142 -4.152,14.262 -5.583,18.673c-0.069,0.211 -0.265,0.345 -0.476,0.345z" fill="#3369FF"/>
      </g>
     </g>
    </g>
    <g id="svg_319">
     <path d="m420.68787,469.12879c-0.012,-1.029 -0.464,-37.389 -3.748,-59.076c-3.706,-24.47 -15.668,-71 -22.751,-75c-3.603,-2.034 -16.189,9.168 -16.416,34.833c-0.168,19 6.32,34.17 10.5,51.333c3.916,16.079 10.924,41.884 12,49c0.036,0.237 0.067,0.45 0.102,0.677c4.721,-1.673 13.827,-2.249 20.313,-1.767z" fill="url(#svg_322)"/>
     <g>
      <path d="m411.57487,441.79679l1.158,10.903l7.51,-0.394l-0.391,-9.004c0,0.001 -2.225,-1.595 -8.277,-1.505z" fill="url(#svg_321)"/>
      <path d="m412.73287,453.19979c-0.255,0 -0.47,-0.191 -0.497,-0.447l-1.158,-10.903c-0.015,-0.14 0.029,-0.279 0.123,-0.385c0.093,-0.104 0.227,-0.166 0.366,-0.168l0.496,-0.004c5.777,0 7.989,1.538 8.08,1.604c0.125,0.089 0.202,0.231 0.209,0.385l0.391,9.004c0.012,0.274 -0.2,0.507 -0.474,0.521l-7.51,0.394c-0.008,-0.001 -0.017,-0.001 -0.026,-0.001zm-0.603,-10.907l1.05,9.883l6.541,-0.343l-0.357,-8.238c-0.626,-0.336 -2.8,-1.292 -7.234,-1.302z" fill="#3369FF"/>
     </g>
     <path d="m408.93887,499.80279c2.083,-0.667 1.375,-9.625 1.375,-9.625s1.439,0.751 3.564,5.126s5.713,11.913 7.686,11.124c1.25,-0.5 1,-4.083 1,-4.083s1.75,-0.167 2.125,-3.542c0.418,-3.76 0.5,-14.375 -1.25,-21.125s-2.75,-8.5 -2.75,-8.5s0,-0.034 -0.001,-0.049c-6.486,-0.482 -15.592,0.094 -20.313,1.768c1.149,7.648 1.28,9.34 1.966,13.283c1.002,5.766 4.667,16.241 6.598,15.623z" fill="url(#svg_320)"/>
     <path d="m419.93387,492.93479c0.932,1.418 1.552,2.964 2.034,4.54c0.473,1.579 0.769,3.207 0.877,4.846c0.011,0.155 -0.107,0.29 -0.263,0.301c-0.151,0.01 -0.283,-0.103 -0.3,-0.252c-0.178,-1.588 -0.535,-3.152 -1.06,-4.654c-0.529,-1.494 -1.201,-2.958 -2.111,-4.21c-0.163,-0.223 -0.114,-0.536 0.108,-0.699c0.224,-0.163 0.536,-0.114 0.699,0.108c0.005,0.005 0.012,0.014 0.016,0.02z" fill="#B75334"/>
     <path d="m410.74187,484.93379c-0.15,0.327 -0.195,0.807 -0.231,1.264c-0.032,0.463 -0.041,0.938 -0.039,1.412c0.006,0.95 0.059,1.907 0.129,2.863c0.012,0.146 -0.098,0.274 -0.244,0.286c-0.139,0.011 -0.262,-0.089 -0.283,-0.224c-0.149,-0.957 -0.281,-1.917 -0.366,-2.891c-0.042,-0.486 -0.073,-0.976 -0.079,-1.474c0.006,-0.5 -0.013,-1.004 0.175,-1.583l0.006,-0.017c0.086,-0.264 0.368,-0.408 0.632,-0.323c0.263,0.086 0.407,0.368 0.322,0.632c-0.008,0.02 -0.015,0.037 -0.022,0.055z" fill="#B75334"/>
     <g>
      <path d="m413.63187,469.49679c-0.003,0 -0.006,0 -0.009,0c-0.275,-0.005 -0.496,-0.232 -0.491,-0.509c0.327,-19.505 -11.185,-107.714 -28.406,-127.162c-0.184,-0.207 -0.164,-0.523 0.043,-0.706c0.205,-0.182 0.521,-0.164 0.705,0.043c17.37,19.615 28.987,108.255 28.658,127.842c-0.005,0.274 -0.227,0.492 -0.5,0.492z" fill="#3369FF"/>
     </g>
    </g>
   </g>
  </g>
 </g>
</svg>