<svg width="600" height="600" xmlns="http://www.w3.org/2000/svg" xml:space="preserve" enable-background="new 0 0 600 600" version="1.1">

 <g>
  <title>Layer 1</title>
  <g id="FLOOR">
   <path d="m405.2,534.3l-232.3,0c-1.7,0 -3.1,-1.4 -3.1,-3.1l0,-0.6c0,-1.7 1.4,-3.1 3.1,-3.1l232.2,0c1.7,0 3.1,1.4 3.1,3.1l0,0.6c0.1,1.7 -1.3,3.1 -3,3.1z" fill="#99ADF9" id="XMLID_131_"/>
  </g>
  <g id="SERVER_1">
   <g id="XMLID_20_">
    <g id="XMLID_34_">
     <path d="m311.2,466.4l0,45c0,3.6 -2.9,6.6 -6.6,6.6l-116.3,0c-3.6,0 -6.6,-2.9 -6.6,-6.6l0,-45c0,-3.6 2.9,-6.6 6.6,-6.6l116.4,0c3.6,0 6.5,3 6.5,6.6z" fill="#E1ECFF" id="XMLID_64_"/>
     <g id="XMLID_27_">
      <circle r="3.4" cy="472" cx="201" fill="#273D7A" id="XMLID_26_"/>
      <circle r="3.4" cy="472" cx="213.1" fill="#FF8D76" id="XMLID_28_"/>
      <circle r="3.4" cy="472" cx="225.1" fill="#FF8D76" id="XMLID_29_"/>
     </g>
     <path d="m293,490l-29.7,0c-1.3,0 -2.4,-1.1 -2.4,-2.4l0,0c0,-1.3 1.1,-2.4 2.4,-2.4l29.7,0c1.3,0 2.4,1.1 2.4,2.4l0,0c0,1.3 -1,2.4 -2.4,2.4z" fill="#273D7A" id="XMLID_30_"/>
     <circle r="5" cy="487.6" cx="293.6" fill="#FF8D76" id="XMLID_31_"/>
     <path d="m251.2,518l-54.3,0l2,-4.9c1,-2.5 3.4,-4.1 6.1,-4.1l38.2,0c2.7,0 5,1.6 6.1,4.1l1.9,4.9z" fill="#273D7A" id="XMLID_57_"/>
     <g id="XMLID_33_">
      <rect height="9.9" width="99.6" fill="#273D7A" y="518" x="197.6" id="XMLID_25_"/>
      <rect height="4.9" width="99.6" fill="#072359" y="518" x="197.6" id="XMLID_32_"/>
     </g>
     <path d="m192.1,459.8l0,58.2l-3.8,0c-3.6,0 -6.6,-2.9 -6.6,-6.6l0,-45c0,-3.6 2.9,-6.6 6.6,-6.6l3.8,0z" fill="#CDE0FC" id="XMLID_61_"/>
     <path d="m311.2,466.4l0,45c0,3.6 -2.9,6.6 -6.6,6.6l-2.1,0l0,-58.2l2.1,0c3.7,0 6.6,3 6.6,6.6z" fill="#F0F5FC" id="XMLID_60_"/>
    </g>
    <g id="XMLID_36_">
     <path d="m311.2,413.9l0,31.6c0,3.6 -2.9,6.6 -6.6,6.6l-116.3,0c-3.6,0 -6.6,-2.9 -6.6,-6.6l0,-31.6c0,-3.6 2.9,-6.6 6.6,-6.6l116.4,0c3.6,0 6.5,3 6.5,6.6z" fill="#E1ECFF" id="XMLID_71_"/>
     <g id="XMLID_67_">
      <circle r="3.4" cy="419.5" cx="201" fill="#FF8D76" id="XMLID_70_"/>
      <circle r="3.4" cy="419.5" cx="213.1" fill="#FF8D76" id="XMLID_69_"/>
      <circle r="3.4" cy="419.5" cx="225.1" fill="#273D7A" id="XMLID_68_"/>
     </g>
     <path d="m293,427.7l-29.7,0c-1.3,0 -2.4,-1.1 -2.4,-2.4l0,0c0,-1.3 1.1,-2.4 2.4,-2.4l29.7,0c1.3,0 2.4,1.1 2.4,2.4l0,0c0,1.3 -1,2.4 -2.4,2.4z" fill="#273D7A" id="XMLID_66_"/>
     <circle r="5" cy="425.2" cx="293.6" fill="#FF8D76" id="XMLID_65_"/>
     <path d="m251.2,452.1l-54.3,0l2,-4.9c1,-2.5 3.4,-4.1 6.1,-4.1l38.2,0c2.7,0 5,1.6 6.1,4.1l1.9,4.9z" fill="#273D7A" id="XMLID_63_"/>
     <g id="XMLID_58_">
      <rect height="7.7" width="99.6" fill="#273D7A" y="452.1" x="197.6" id="XMLID_62_"/>
      <rect height="3.9" width="99.6" fill="#072359" y="452.1" x="197.6" id="XMLID_59_"/>
     </g>
     <path d="m192.1,407.3l0,44.7l-3.8,0c-3.6,0 -6.6,-2.9 -6.6,-6.6l0,-31.6c0,-3.6 2.9,-6.6 6.6,-6.6l3.8,0l0,0.1z" fill="#CDE0FC" id="XMLID_56_"/>
     <path d="m311.2,413.9l0,31.6c0,3.6 -2.9,6.6 -6.6,6.6l-2.1,0l0,-44.7l2.1,0c3.7,-0.1 6.6,2.9 6.6,6.5z" fill="#F0F5FC" id="XMLID_37_"/>
    </g>
    <g id="XMLID_72_">
     <path d="m311.2,367.9l0,25.1c0,3.6 -2.9,6.6 -6.6,6.6l-116.3,0c-3.6,0 -6.6,-2.9 -6.6,-6.6l0,-25.2c0,-3.6 2.9,-6.6 6.6,-6.6l116.4,0c3.6,0.1 6.5,3 6.5,6.7z" fill="#E1ECFF" id="XMLID_85_"/>
     <g id="XMLID_81_">
      <circle r="3.4" cy="373.5" cx="201" fill="#273D7A" id="XMLID_84_"/>
      <circle r="3.4" cy="373.5" cx="213.1" fill="#FF8D76" id="XMLID_83_"/>
      <circle r="3.4" cy="373.5" cx="225.1" fill="#FF8D76" id="XMLID_82_"/>
     </g>
     <path d="m293,381.6l-29.7,0c-1.3,0 -2.4,-1.1 -2.4,-2.4l0,0c0,-1.3 1.1,-2.4 2.4,-2.4l29.7,0c1.3,0 2.4,1.1 2.4,2.4l0,0c0,1.3 -1,2.4 -2.4,2.4z" fill="#273D7A" id="XMLID_80_"/>
     <circle r="5" cy="379.2" cx="293.6" fill="#FF8D76" id="XMLID_79_"/>
     <path d="m251.2,399.6l-54.3,0l2,-4.9c1,-2.5 3.4,-4.1 6.1,-4.1l38.2,0c2.7,0 5,1.6 6.1,4.1l1.9,4.9z" fill="#273D7A" id="XMLID_78_"/>
     <g id="XMLID_75_">
      <rect height="7.7" width="99.6" fill="#273D7A" y="399.6" x="197.6" id="XMLID_77_"/>
      <rect height="3.9" width="99.6" fill="#072359" y="399.6" x="197.6" id="XMLID_76_"/>
     </g>
     <path d="m192.1,361.3l0,38.3l-3.8,0c-3.6,0 -6.6,-2.9 -6.6,-6.6l0,-25.2c0,-3.6 2.9,-6.6 6.6,-6.6l3.8,0l0,0.1z" fill="#CDE0FC" id="XMLID_74_"/>
     <path d="m311.2,367.9l0,25.1c0,3.6 -2.9,6.6 -6.6,6.6l-2.1,0l0,-38.3l2.1,0c3.7,0 6.6,2.9 6.6,6.6z" fill="#F0F5FC" id="XMLID_73_"/>
    </g>
    <g id="XMLID_86_">
     <path d="m311.2,321.8l0,25.2c0,3.6 -2.9,6.6 -6.6,6.6l-116.3,0c-3.6,0 -6.6,-2.9 -6.6,-6.6l0,-25.2c0,-3.6 2.9,-6.6 6.6,-6.6l116.4,0c3.6,0.1 6.5,3 6.5,6.6z" fill="#E1ECFF" id="XMLID_99_"/>
     <g id="XMLID_95_">
      <circle r="3.4" cy="327.4" cx="201" fill="#FF8D76" id="XMLID_98_"/>
      <circle r="3.4" cy="327.4" cx="213.1" fill="#FF8D76" id="XMLID_97_"/>
      <circle r="3.4" cy="327.4" cx="225.1" fill="#273D7A" id="XMLID_96_"/>
     </g>
     <path d="m293,335.6l-29.7,0c-1.3,0 -2.4,-1.1 -2.4,-2.4l0,0c0,-1.3 1.1,-2.4 2.4,-2.4l29.7,0c1.3,0 2.4,1.1 2.4,2.4l0,0c0,1.3 -1,2.4 -2.4,2.4z" fill="#273D7A" id="XMLID_94_"/>
     <circle r="5" cy="333.2" cx="293.6" fill="#FF8D76" id="XMLID_93_"/>
     <path d="m251.2,353.6l-54.3,0l2,-4.9c1,-2.5 3.4,-4.1 6.1,-4.1l38.2,0c2.7,0 5,1.6 6.1,4.1l1.9,4.9z" fill="#273D7A" id="XMLID_92_"/>
     <g id="XMLID_89_">
      <rect height="7.7" width="99.6" fill="#273D7A" y="353.6" x="197.6" id="XMLID_91_"/>
      <rect height="3.9" width="99.6" fill="#072359" y="353.6" x="197.6" id="XMLID_90_"/>
     </g>
     <path d="m192.1,315.3l0,38.3l-3.8,0c-3.6,0 -6.6,-2.9 -6.6,-6.6l0,-25.2c0,-3.6 2.9,-6.6 6.6,-6.6l3.8,0l0,0.1z" fill="#CDE0FC" id="XMLID_88_"/>
     <path d="m311.2,321.8l0,25.2c0,3.6 -2.9,6.6 -6.6,6.6l-2.1,0l0,-38.3l2.1,0c3.7,0 6.6,2.9 6.6,6.5z" fill="#F0F5FC" id="XMLID_87_"/>
    </g>
   </g>
  </g>
  <g id="SERVER_2">
   <g id="XMLID_295_">
    <path d="m383.5,405.3l0,116.8c0,3.1 -2.6,5.7 -5.7,5.7l-58.3,0c-3.2,0 -5.7,-2.6 -5.7,-5.7l0,-116.8c0,-3.2 2.6,-5.7 5.7,-5.7l58.3,0c3.1,0 5.7,2.6 5.7,5.7z" fill="#FF97C9" id="XMLID_314_"/>
    <path d="m332.3,399.6l0,128.2l-12.8,0c-3.2,0 -5.7,-2.6 -5.7,-5.7l0,-116.8c0,-3.2 2.6,-5.7 5.7,-5.7l12.8,0z" fill="#F774B9" id="XMLID_313_"/>
    <path d="m321.6,413l29.9,0c1.6,0 2.8,1.3 2.8,2.8l0,13.5c0,1.6 -1.3,2.8 -2.8,2.8l-29.9,0c-1.6,0 -2.8,-1.3 -2.8,-2.8l0,-13.5c-0.1,-1.6 1.2,-2.8 2.8,-2.8z" fill="#5A7FDB" id="XMLID_312_"/>
    <path d="m378.5,415.8l0,13.5c0,1.6 -1.3,2.8 -2.8,2.8l-13.8,0c-1.6,0 -2.8,-1.3 -2.8,-2.8l0,-13.5c0,-1.6 1.3,-2.8 2.8,-2.8l13.8,0c1.5,0 2.8,1.2 2.8,2.8z" fill="#273D7A" id="XMLID_311_"/>
    <g id="XMLID_304_">
     <path d="m356.9,518l-16.6,0c-1.2,0 -2.2,-1 -2.2,-2.2l0,-25.5c0,-1.2 1,-2.2 2.2,-2.2l16.6,0c1.2,0 2.2,1 2.2,2.2l0,25.5c0,1.2 -1,2.2 -2.2,2.2z" fill="#273D7A" id="XMLID_310_"/>
     <path d="m355.6,505l-14,0c-0.9,0 -1.6,-0.7 -1.6,-1.6l0,-11c0,-0.9 0.7,-1.6 1.6,-1.6l14,0c0.9,0 1.6,0.7 1.6,1.6l0,11c0.1,0.9 -0.7,1.6 -1.6,1.6z" fill="#142966" id="XMLID_309_"/>
     <path d="m355.4,515.3l-13.6,0c-1,0 -1.8,-0.8 -1.8,-1.8l0,-4.7c0,-1 0.8,-1.8 1.8,-1.8l13.6,0c1,0 1.8,0.8 1.8,1.8l0,4.7c0.1,1 -0.8,1.8 -1.8,1.8z" fill="#142966" id="XMLID_308_"/>
     <circle r="2.6" cy="511.2" cx="348.6" fill="#FEC272" id="XMLID_305_"/>
    </g>
    <g id="XMLID_296_">
     <path d="m378.5,440.6l0,36.4c0,1.7 -1.3,3.1 -3,3.1l-53.9,0c-1,0 -2,-0.6 -2.5,-1.4c-0.3,-0.5 -0.5,-1.1 -0.5,-1.7l0,-36.4c0,-1.7 1.3,-3.1 3,-3.1l53.9,0c1.4,0 2.6,1 2.9,2.4c0.1,0.3 0.1,0.5 0.1,0.7z" fill="#273D7A" id="XMLID_303_"/>
     <g id="XMLID_297_">
      <path d="m376.3,442.6l0,32.5c0,1.5 -1.2,2.7 -2.7,2.7l-49.9,0c-1,0 -1.8,-0.5 -2.3,-1.3c-0.3,-0.4 -0.4,-0.9 -0.4,-1.5l0,-32.5c0,-1.5 1.2,-2.7 2.7,-2.7l49.9,0c1.3,0 2.4,0.9 2.7,2.2c0,0.2 0,0.4 0,0.6z" fill="#94ADEA" id="XMLID_302_"/>
      <g id="XMLID_298_">
       <path d="m376.3,442l-38.9,35.9l-13.7,0c-1,0 -1.8,-0.5 -2.3,-1.3l39.9,-36.8l12.3,0c1.3,0 2.4,0.9 2.7,2.2z" fill="#738DE0" id="XMLID_301_"/>
       <polygon points="376.3,455.1 376.3,471.1 369,477.9 351.6,477.9      " fill="#738DE0" id="XMLID_300_"/>
       <polygon points="344.5,439.8 320.9,461.6 320.9,445.5 327.1,439.8      " fill="#738DE0" id="XMLID_299_"/>
      </g>
     </g>
    </g>
   </g>
  </g>
  <g id="ORNAMENT_3">
   <g id="XMLID_106_">
    <path d="m293.6,313.5l-57.4,0l1,-2.8l6.1,-16.5l5.4,-14.7l6.1,-16.5l6.2,-17c0.2,-0.7 0.6,-1.2 1.1,-1.6c2,-1.9 5.6,-1.3 6.7,1.6l2.5,6.9l3.8,10.4l3.4,9.3l3.8,10.4l3.4,9.3l3.8,10.4l4.1,10.8z" fill="#FF8D76" id="XMLID_124_"/>
    <g id="XMLID_105_">
     <polygon points="275.1,263.3 257.7,274 248.7,279.5 254.7,263.1 259.8,260 271.3,252.9    " fill="#273D7A" id="XMLID_121_"/>
     <polygon points="282.3,282.9 253.7,300.5 237.2,310.7 243.3,294.2 255.8,286.5 278.5,272.5         " fill="#273D7A" id="XMLID_129_"/>
     <polygon points="289.6,302.6 271.8,313.5 251.2,313.5 251.8,313.1 285.8,292.2    " fill="#273D7A" id="XMLID_127_"/>
    </g>
    <path d="m262.1,244.4l-10.3,69.1l-15.6,0l1,-2.8l6.1,-16.5l5.4,-14.7l6.1,-16.5l6.2,-17c0.3,-0.6 0.6,-1.2 1.1,-1.6z" fill="#FF8D76" id="XMLID_122_"/>
    <polygon points="251.2,313.5 251.8,313.1 251.8,313.5   " fill="#FF8D76" id="XMLID_123_"/>
    <polygon points="255.8,286.5 253.7,300.5 237.2,310.7 243.3,294.2   " fill="#072359" id="XMLID_126_"/>
    <polygon points="259.8,260 257.7,274 248.7,279.5 254.7,263.1   " fill="#072359" id="XMLID_119_"/>
    <path d="m294.4,315.3l-60.5,0c-1.8,0 -3.2,-1.5 -3.2,-3.2l0,-0.2c0,-1.8 1.5,-3.2 3.2,-3.2l60.5,0c1.8,0 3.2,1.5 3.2,3.2l0,0.2c0,1.7 -1.4,3.2 -3.2,3.2z" fill="#FF8D76" id="XMLID_102_"/>
   </g>
  </g>
  <g id="ORNAMENT_1">
   <g id="XMLID_120_">
    <polygon points="182.5,304.9 169.3,271.3 160.9,275.8 181.5,305.4   " fill="#FEC272" id="XMLID_191_"/>
    <polygon points="148.1,271.3 140.1,279.9 176.3,309.9 177.9,308.4   " fill="#FEC272" id="XMLID_167_"/>
    <polygon points="147.2,293.7 142.6,301.3 172.7,314.6 173.4,313.4   " fill="#FEC272" id="XMLID_125_"/>
   </g>
  </g>
  <g id="ORNAMENT_2">
   <path d="m377.2,373.7l-2.1,14.4c0,0 6.1,-0.3 10.7,3.6c6,5.2 6.7,10 6.7,10l22.6,-11.5c0,0 -15.1,5 -20.1,-0.1c-5,-5.1 -0.8,-15.4 -0.8,-15.4s-6.7,8.7 -11.7,7.2c-4.9,-1.4 -5.3,-8.2 -5.3,-8.2z" fill="#FEC272" id="XMLID_172_"/>
  </g>
 </g>
</svg>